<?xml version="1.0" encoding="UTF-8" standalone="no"?>
<!-- Created with Inkscape (http://www.inkscape.org/) -->

<svg
   version="1.1"
   id="svg1"
   width="960"
   height="640"
   viewBox="0 0 960 640"
   sodipodi:docname="frog.png"
   inkscape:export-filename="frog.png"
   inkscape:export-xdpi="96"
   inkscape:export-ydpi="96"
   xmlns:inkscape="http://www.inkscape.org/namespaces/inkscape"
   xmlns:sodipodi="http://sodipodi.sourceforge.net/DTD/sodipodi-0.dtd"
   xmlns="http://www.w3.org/2000/svg"
   xmlns:svg="http://www.w3.org/2000/svg">
  <defs
     id="defs1" />
  <sodipodi:namedview
     id="namedview1"
     pagecolor="#505050"
     bordercolor="#eeeeee"
     borderopacity="1"
     inkscape:showpageshadow="0"
     inkscape:pageopacity="0"
     inkscape:pagecheckerboard="0"
     inkscape:deskcolor="#505050"
     inkscape:export-bgcolor="#ffffff00">
    <inkscape:page
       x="0"
       y="0"
       width="960"
       height="640"
       id="page2"
       margin="0"
       bleed="0" />
  </sodipodi:namedview>
  <g
     inkscape:groupmode="layer"
     inkscape:label="Image"
     id="g1">
    <path
       style="fill:#000000"
       d="m 439.09221,621.6111 c -0.63398,-0.76389 -3.09525,-1.87804 -5.4695,-2.47588 -2.58624,-0.65123 -7.48502,-3.51818 -12.21976,-7.15148 -4.34662,-3.33548 -8.91545,-6.32011 -10.15295,-6.63253 -1.2375,-0.31241 -2.25,-0.92642 -2.25,-1.36446 0,-0.43804 -1.86889,-0.54577 -4.15308,-0.23939 -3.09418,0.41501 -3.96288,0.24928 -3.40707,-0.65003 0.54381,-0.87991 -0.29559,-1.12445 -3.09692,-0.90221 -4.14793,0.32908 -4.70918,0.64514 -9.86402,5.55488 -1.87673,1.7875 -3.84425,3.25 -4.37225,3.25 -0.52801,0 -1.11046,0.7812 -1.29433,1.736 -0.26705,1.38664 -1.01848,0.98415 -3.73401,-2 -1.86982,-2.0548 -4.02276,-3.736 -4.78431,-3.736 -1.0436,0 -1.2319,-0.92362 -0.7645,-3.75 0.44678,-2.70172 0.33488,-3.33879 -0.40032,-2.27896 -0.56124,0.80907 -1.28436,1.20713 -1.60692,0.88457 -0.61266,-0.61267 -4.27869,-12.5961 -5.12739,-16.76031 -0.69195,-3.39509 -2.27337,-6.0953 -3.56982,-6.0953 -0.60752,0 -1.73689,-0.7875 -2.50971,-1.75 -1.2341,-1.53698 -1.33001,-1.08052 -0.78791,3.75 0.33948,3.025 0.81905,6.2215 1.06573,7.10333 0.60435,2.16045 -6.99913,7.21999 -9.60655,6.39242 -2.79346,-0.88661 -7.58144,-7.46371 -8.35731,-11.4802 -0.39041,-2.02108 -2.27835,-5.17088 -4.49539,-7.5 -3.60946,-3.79194 -8.12298,-14.48596 -8.14008,-19.28655 -0.003,-0.95095 -0.69033,-3.04095 -1.52653,-4.64444 -0.8362,-1.6035 -1.67426,-4.0785 -1.86236,-5.5 -0.18809,-1.42151 -0.6743,-3.37206 -1.08046,-4.33456 -0.40616,-0.9625 -0.47945,-2.425 -0.16286,-3.25 0.31658,-0.825 0.20086,-1.5 -0.25716,-1.5 -0.89097,0 -4.28214,-8.17915 -4.76803,-11.5 -0.44524,-3.04309 -0.91776,-4.72762 -2.21864,-7.9094 -0.65423,-1.60017 -1.10303,-3.62517 -0.99734,-4.5 0.10569,-0.87483 -0.38359,-2.9406 -1.08729,-4.5906 -0.7037,-1.65 -1.38559,-5.7 -1.51532,-9 -0.12973,-3.3 -0.7619,-7.29991 -1.40484,-8.88869 -0.64293,-1.58878 -0.93528,-3.12237 -0.64966,-3.40799 0.28561,-0.28562 0.009,-1.13434 -0.615,-1.88604 -0.62386,-0.75171 -1.28023,-5.73208 -1.45859,-11.06749 -0.2492,-7.45411 0.0309,-10.24285 1.20942,-12.0415 1.40439,-2.14337 1.35982,-2.67438 -0.52862,-6.29743 -1.8061,-3.46507 -2.00318,-5.22738 -1.58617,-14.18377 0.37778,-8.11375 0.2431,-9.71049 -0.65173,-7.72709 -0.62034,1.375 -1.30782,4.525 -1.52774,7 -0.21991,2.475 -0.559,6.3 -0.75354,8.5 -0.19454,2.2 -0.42238,4 -0.5063,4 -0.0839,0 -0.31095,2.925 -0.50449,6.5 -0.19354,3.575 -0.4286,6.95 -0.52236,7.5 -0.23381,1.37153 0.66605,6.31912 1.87654,10.31755 0.61187,2.02107 0.65559,4.23488 0.11189,5.66492 -0.67102,1.76492 -0.51733,2.49133 0.61939,2.92753 0.95234,0.36544 1.28985,1.27962 0.91198,2.47017 -0.32992,1.03951 -0.0838,3.0227 0.547,4.40709 0.78244,1.71727 0.84162,3.42199 0.18625,5.36491 -0.72492,2.14909 -0.57984,3.43443 0.59129,5.23858 0.85354,1.31491 1.64821,4.39033 1.76593,6.83426 0.11772,2.44393 0.92446,5.22853 1.79277,6.18799 0.8683,0.95947 1.57873,2.69499 1.57873,3.85672 0,1.16174 0.45,2.39036 1,2.73028 0.55,0.33992 1,1.68992 1,3 0,1.31008 0.37592,2.61429 0.83537,2.89825 0.45945,0.28396 0.68668,2.9923 0.50496,6.01853 -0.28672,4.7749 -5.8e-4,5.83206 2.16463,7.99728 1.37227,1.37227 2.49504,2.93997 2.49504,3.48378 0,0.54381 0.84563,1.58105 1.87918,2.30498 1.64247,1.15043 4.0363,8.98991 4.58853,15.02681 0.087,0.95129 0.46738,2.03879 0.84525,2.41667 0.37787,0.37787 0.68704,3.08703 0.68704,6.02037 0,3.91867 -0.49591,5.79752 -1.86962,7.08333 -6.37058,5.96301 -8.19592,7.25143 -10.29057,7.26365 -3.59245,0.021 -6.87866,1.11447 -6.27662,2.08859 0.29737,0.48117 -0.1551,0.60785 -1.00551,0.28152 -0.85041,-0.32633 -1.30041,-0.99102 -1,-1.47709 0.30041,-0.48607 -0.0397,-0.6631 -0.75574,-0.39341 -0.71607,0.26969 -2.74003,-0.86046 -4.49771,-2.51145 C 301.57657,581.50038 299.49085,581.21432 298,584 c -0.5887,1.1 -1.55719,2 -2.1522,2 -0.59502,0 -2.76026,1.72949 -4.81165,3.84331 -2.0514,2.11383 -4.64228,4.08193 -5.75751,4.37357 -3.40743,0.89107 -7.94561,-3.56093 -9.6725,-9.48882 C 274.08401,579.50305 267.62004,571 265.17015,571 c -0.66544,0 -2.98813,-1.12255 -5.16153,-2.49456 -3.9034,-2.46411 -6.91965,-6.83103 -7.53458,-10.90857 -0.4821,-3.19673 -1.12939,-5.2635 -5.04137,-16.09687 -1.98607,-5.5 -3.97883,-11.35 -4.42834,-13 -2.04561,-7.50871 -2.98739,-12.71839 -2.45493,-13.57993 0.81007,-1.31073 -0.50593,-5.06497 -1.5494,-4.42007 -1.78989,1.10621 -2.22958,-4.39696 -1.59262,-19.93356 0.59073,-14.40921 0.45191,-16.73263 -1.34584,-22.52504 -1.26502,-4.07595 -1.63678,-6.68588 -1.00771,-7.07467 0.54824,-0.33883 1.16839,-1.93246 1.3781,-3.54139 1.11493,-8.55381 3.00497,-12.03267 11.36467,-20.91821 1.81313,-1.92718 4.61229,-4.18434 6.22036,-5.0159 1.60806,-0.83156 3.4605,-2.51977 4.11654,-3.75158 0.65603,-1.23181 2.43723,-3.58965 3.95822,-5.23965 7.26559,-7.88187 9.86376,-11.10163 9.88508,-12.25 0.0128,-0.6875 0.8107,-2.07807 1.7732,-3.09015 6.63413,-6.97589 7.60762,-8.50945 9.40979,-14.82337 2.07971,-7.28628 2.20633,-7.8441 3.70825,-16.33648 0.9492,-5.36706 1.49975,-7.41387 3.09329,-11.5 0.42898,-1.1 1.81035,-5.15 3.06969,-9 3.4777,-10.63182 6.11788,-14.02274 21.90816,-28.13785 2.99155,-2.67418 6.45147,-5.98715 7.6887,-7.36215 5.02951,-5.58953 8.37212,-9.80868 8.37212,-10.56756 0,-0.44195 0.91344,-1.77585 2.02986,-2.96423 3.13662,-3.33878 8.25268,-24.62887 7.47353,-31.10055 -0.93496,-7.76582 2.62059,-21.34522 8.67294,-33.12382 8.64404,-16.82234 11.12336,-25.86885 12.77961,-46.62994 1.04427,-13.09001 1.30661,-14.22534 4.57592,-19.80357 1.90748,-3.25462 3.46814,-6.32019 3.46814,-6.81238 0,-0.4922 1.02708,-2.00315 2.2824,-3.35766 1.25533,-1.35452 3.3581,-3.86637 4.67284,-5.58189 3.91484,-5.10824 11.01697,-9.54185 17.54476,-10.95259 3.3,-0.71317 8.13236,-1.97885 10.73858,-2.81261 2.60622,-0.83377 5.36412,-1.2759 6.12867,-0.98252 0.76454,0.29339 3.07759,0.15283 5.14009,-0.31234 4.99778,-1.12718 18.00115,0.96145 24.49266,3.93406 0.825,0.37778 3.29911,0.79415 5.49803,0.92527 2.19892,0.13111 4.42642,0.66678 4.95,1.19036 0.52358,0.52358 1.74199,0.95197 2.70756,0.95197 0.96558,0 3.41337,1.125 5.43955,2.5 2.02617,1.375 4.43513,2.5 5.35324,2.5 0.9181,0 4.1178,1.48755 7.11045,3.30566 2.99264,1.81811 6.56617,3.95561 7.94117,4.75 1.375,0.79439 4.09342,2.64514 6.04094,4.11279 5.64768,4.25609 14.08743,5.90695 30.25133,5.91734 17.26628,0.0111 32.65641,-0.78627 38.70773,-2.00545 14.52576,-2.92655 23.91394,-5.6391 27.47215,-7.9376 6.12091,-3.95393 7.89059,-5.00828 9.52785,-5.67652 1.62919,-0.66494 3.03211,-1.40718 9.77169,-5.16984 3.5327,-1.97229 5.7753,-2.45788 11.0788,-2.39887 3.65723,0.0407 7.77451,0.28818 9.14951,0.54998 14.23652,2.71065 17,3.69538 17,6.05776 0,0.78918 1.35,2.43297 3,3.65287 1.65,1.2199 3,2.72374 3,3.34188 0,0.61814 1.30729,2.0904 2.90508,3.2717 4.32911,3.20065 7.46253,13.32065 6.65614,21.49733 -0.33798,3.42703 -0.84886,15.12473 -1.13529,25.99488 l -0.52077,19.76391 3.51732,8.62733 c 3.10503,7.61604 3.44617,9.30813 2.91028,14.43525 -0.59357,5.67896 -0.53193,5.87012 2.77569,8.60876 1.8605,1.54046 6.11671,5.324 9.45824,8.40787 3.34153,3.08387 6.50976,5.78387 7.04053,6 0.53076,0.21613 1.96127,1.81244 3.1789,3.54734 1.7793,2.53518 2.21388,4.54309 2.21388,10.229 0,6.97438 0.58253,9.39701 7.00528,29.13368 3.61512,11.10899 6.31427,27.05958 5.47513,32.35521 -1.96947,12.42901 -4.15682,20.22848 -9.03616,32.22044 -2.9795,7.32271 -5.15369,14.0009 -4.83154,14.84042 0.83219,2.16864 7.07739,5.81688 9.95758,5.81688 2.36915,0 3.34811,2.06437 1.51593,3.19671 -0.83602,0.51669 2.65825,8.69161 3.987,9.3277 0.31528,0.15092 0.38168,1.5795 0.14757,3.17461 -0.23411,1.5951 0.14295,4.62162 0.83791,6.72559 0.69496,2.10396 1.35618,8.32539 1.46938,13.82539 0.2316,11.2528 2.2132,21.91778 5.8849,31.67257 1.36586,3.62876 2.27483,6.80628 2.01994,7.06117 -0.25488,0.25489 -0.61962,3.56907 -0.81051,7.36485 -0.19089,3.79577 -0.82913,8.08957 -1.41831,9.54177 -0.58917,1.4522 -1.16491,6.4022 -1.27941,11 -0.1145,4.5978 -0.61798,8.62578 -1.11885,8.95105 -0.50087,0.32528 -1.08548,2.50116 -1.29913,4.83529 -0.21365,2.33414 -1.09007,5.31467 -1.94759,6.62341 -1.95601,2.98526 -1.97204,3.82232 -0.0591,3.08826 0.94663,-0.36325 1.5,0.0123 1.5,1.01801 0,1.24036 -0.67071,1.45948 -3.02565,0.98849 -2.70124,-0.54025 -3.19917,-0.24127 -4.64392,2.78839 -0.89004,1.86644 -2.11599,3.2051 -2.72434,2.9748 -0.60835,-0.2303 -2.45609,0.76119 -4.10609,2.2033 -4.5682,3.99265 -9.77556,7.0946 -13.75405,8.19312 -3.1236,0.86247 -3.84309,0.71237 -5.5445,-1.1567 -1.07531,-1.18128 -2.48778,-3.8121 -3.13883,-5.84627 -1.04601,-3.26821 -0.88988,-4.42599 1.34198,-9.95152 1.38914,-3.43916 2.32898,-6.44975 2.08853,-6.69019 -0.24044,-0.24045 -0.86529,0.68886 -1.38855,2.06513 -0.52325,1.37626 -1.60315,2.75241 -2.39976,3.0581 -0.79661,0.30569 -2.47073,2.66768 -3.72026,5.24886 -1.24953,2.58119 -3.55723,6.00797 -5.12822,7.61507 -1.57099,1.6071 -2.85634,3.25946 -2.85634,3.67191 0,0.41245 -1.2375,1.48686 -2.75,2.38757 -1.5125,0.90072 -4.1,2.96011 -5.75,4.57643 -1.65,1.61632 -4.12327,3.29188 -5.49616,3.72346 -1.37289,0.43159 -2.94789,1.35782 -3.5,2.0583 -0.55211,0.70048 -3.11914,1.54462 -5.70451,1.87588 -4.69534,0.60159 -4.70139,0.59849 -5.32708,-2.73673 -0.78127,-4.16451 1.15317,-15.1974 3.36629,-19.19937 0.9138,-1.65243 2.67396,-4.27644 3.91146,-5.83114 1.2375,-1.55469 2.25,-3.46719 2.25,-4.25 0,-0.7828 0.45,-1.42327 1,-1.42327 0.55,0 1,-0.49303 1,-1.09563 0,-0.6026 0.93064,-2.4026 2.06809,-4 2.78737,-3.91449 1.29455,-3.63048 -3.56809,0.67882 -2.2,1.94966 -5.2375,4.20258 -6.75,5.0065 -1.5125,0.80392 -2.75,1.90673 -2.75,2.45069 0,1.83685 -6.35252,4.90407 -9.46247,4.56881 -2.20653,-0.23786 -3.12497,-0.91324 -3.35713,-2.46868 -0.43172,-2.89246 6.0445,-16.13075 9.65487,-19.73588 1.59987,-1.59755 4.1587,-4.92963 5.68628,-7.40463 1.52759,-2.475 3.15338,-4.74737 3.61288,-5.04971 1.22093,-0.80335 2.27833,-6.95029 1.19559,-6.95029 -0.50599,0 -1.77732,2.07899 -2.82517,4.61998 -3.88686,9.42536 -11.99971,19.10973 -24.50485,29.25161 -3.025,2.45333 -8.2,7.14438 -11.5,10.42456 -3.3,3.28018 -8.475,7.56502 -11.5,9.52187 -3.025,1.95684 -6.2472,4.50557 -7.16045,5.66383 -2.86548,3.63425 -11.97269,7.39957 -19.45883,8.04515 -3.7844,0.32636 -8.68072,0.7481 -10.88072,0.9372 -2.2,0.18911 -6.025,0.82847 -8.5,1.42082 -11.30201,2.70492 -15.82129,3.14575 -35.75,3.4872 -16.8294,0.28835 -21.25,0.0968 -21.25,-0.92073 0,-0.70665 -0.5625,-1.47414 -1.25,-1.70554 -0.99598,-0.33521 -0.99774,-0.72647 -0.009,-1.92534 0.68273,-0.82754 0.94523,-1.80072 0.58334,-2.16262 -0.3619,-0.36189 0.26043,-0.65799 1.38295,-0.65799 1.12251,0 3.99297,-0.68872 6.37878,-1.53048 2.38582,-0.84177 6.85434,-1.67887 9.93006,-1.86023 3.07571,-0.18136 7.14276,-1.02487 9.03788,-1.87447 1.89512,-0.84959 5.65027,-1.81308 8.34478,-2.14108 2.69451,-0.32799 5.52609,-1.1167 6.29238,-1.75267 1.0013,-0.83099 1.69841,-0.85117 2.47787,-0.0717 1.23387,1.23387 5.77857,-0.10625 7.06029,-2.08192 0.5304,-0.81758 1.00396,-0.85788 1.52035,-0.12938 0.52087,0.73481 5.25944,0.50086 15.51066,-0.76581 12.85506,-1.5884 15.3868,-2.20912 19.6106,-4.80806 2.66747,-1.6413 5.33053,-2.98419 5.91791,-2.98419 0.58739,0 1.66262,-0.58092 2.3894,-1.29092 0.72679,-0.71001 2.33801,-1.99274 3.5805,-2.85051 C 584.08931,537.4884 603,519.69373 603,518.10723 c 0,-0.463 2.36359,-3.26404 5.25241,-6.22452 5.348,-5.48067 9.70704,-11.71614 17.74759,-25.38741 2.475,-4.20822 5.44731,-8.8537 6.60513,-10.3233 1.15783,-1.4696 2.6762,-4.472 3.37418,-6.672 0.69797,-2.2 2.38352,-6.475 3.74566,-9.5 1.36214,-3.025 2.49347,-5.725 2.51405,-6 0.0206,-0.275 2.15336,-3.65 4.7395,-7.5 C 652.29372,438.58723 657,429.58096 657,427.32221 c 0,-0.83241 0.83043,-2.70794 1.8454,-4.16784 1.01496,-1.4599 3.00189,-5.12937 4.41538,-8.15437 1.41349,-3.025 5.08307,-10.80372 8.1546,-17.28603 3.07154,-6.48232 5.58462,-12.1392 5.58462,-12.57085 0,-0.43165 1.81621,-5.60447 4.03603,-11.49515 5.21083,-13.82788 5.89368,-17.82091 4.85921,-28.41468 -1.58904,-16.27294 -2.70776,-22.33026 -6.23017,-33.73329 -1.35917,-4.4 -3.0382,-10.475 -3.73119,-13.5 -0.69974,-3.05449 -2.18792,-6.31854 -3.34693,-7.34091 -1.14782,-1.0125 -3.43695,-3.05542 -5.08695,-4.53981 -1.65,-1.4844 -6.02655,-5.04501 -9.72567,-7.91247 l -6.72568,-5.21355 0.60068,3.00337 c 0.39889,1.99447 0.20012,3.00337 -0.59172,3.00337 -0.73731,0 -0.95012,0.7633 -0.55761,2 0.37034,1.16683 0.1797,2 -0.45761,2 -0.60082,0 -1.36239,-1.35 -1.69239,-3 -0.33,-1.65 -0.99375,-3 -1.475,-3 -0.48125,0 -0.875,-0.69473 -0.875,-1.54384 0,-0.91559 -0.71214,-1.42426 -1.75,-1.25 -0.97786,0.16419 -1.63969,-0.25769 -1.5,-0.95616 0.1375,-0.6875 -0.2,-1.25 -0.75,-1.25 -0.55,0 -1,-0.675 -1,-1.5 0,-0.825 -0.42508,-1.5 -0.94462,-1.5 -0.51954,0 -3.48829,-2.3625 -6.59722,-5.25 -3.10894,-2.8875 -7.52136,-6.31567 -9.80538,-7.61816 -2.28403,-1.30248 -5.27778,-3.1187 -6.65278,-4.03603 -2.68951,-1.79431 -4.81705,-2.83165 -12.29749,-5.99597 -2.63862,-1.11617 -5.91966,-2.91209 -7.29118,-3.99093 -1.51309,-1.19019 -3.46058,-1.7862 -4.95251,-1.51566 -1.35235,0.24522 -2.45882,0.0482 -2.45882,-0.43783 0,-0.96377 -8.27991,-4.41826 -11.5,-4.79796 -7.01062,-0.82666 -23.79687,-2.38626 -28,-2.60146 -2.75,-0.1408 -5.45,-0.51782 -6,-0.83781 -0.55,-0.32 -2.8,-0.43476 -5,-0.25502 -7.39585,0.60423 -19.94908,1.36242 -26.5,1.60055 -3.575,0.12995 -6.74156,0.5576 -7.03679,0.95032 -0.29524,0.39272 -2.09524,0.94942 -4,1.2371 -10.37906,1.56756 -30.05504,7.14929 -35.83741,10.16644 -1.44419,0.75355 -3.1883,1.37287 -3.8758,1.37626 -0.6875,0.003 -2.16641,0.92257 -3.28647,2.04263 -1.12007,1.12007 -2.39808,1.813 -2.84003,1.53986 -0.44196,-0.27315 -2.65816,1.28544 -4.92489,3.46352 -2.26673,2.17808 -4.40441,3.96015 -4.75038,3.96015 -0.34598,0 -2.72586,2.16115 -5.28864,4.80256 -2.56277,2.64141 -6.77574,6.24834 -9.36215,8.0154 -2.58641,1.76707 -5.49594,4.55591 -6.46561,6.19744 -0.96967,1.64153 -2.11602,2.9846 -2.54744,2.9846 -0.43141,0 -0.78439,0.675 -0.78439,1.5 0,0.825 -0.63486,1.5 -1.41079,1.5 -0.77594,0 -2.39173,2.02635 -3.59066,4.50299 -1.25116,2.58456 -2.6331,4.22287 -3.24371,3.84549 -0.62611,-0.38695 -0.77078,-0.18329 -0.3516,0.49496 0.72592,1.17456 -2.24488,7.15656 -3.55412,7.15656 -0.39582,0 -1.29274,1.5848 -1.99316,3.52178 -0.70042,1.93697 -2.36389,4.23624 -3.69661,5.10947 -1.90578,1.24871 -2.12913,1.76939 -1.04611,2.43874 1.11328,0.68804 0.99489,1.15244 -0.61811,2.42471 -1.09732,0.86552 -2.89513,1.95711 -3.99513,2.42577 -1.39688,0.59514 -2.5589,2.92191 -3.85338,7.71581 -1.01935,3.77505 -3.15685,9.40171 -4.75,12.5037 -1.59314,3.10199 -2.89662,5.94513 -2.89662,6.31809 0,1.12117 6.11355,-3.59039 6.72444,-5.18237 0.3114,-0.81147 1.51328,-2.50385 2.67087,-3.76084 3.40767,-3.70033 6.67394,-9.5938 5.95855,-10.75132 -0.36764,-0.59485 -0.19779,-0.78512 0.38135,-0.42719 0.58757,0.36314 3.65265,-3.39579 7.00887,-8.59549 12.74964,-19.75265 39.46062,-47.74625 53.75592,-56.33718 9.04896,-5.43809 23.31666,-10.68015 37.87581,-13.91587 3.91831,-0.87083 8.58407,-2.04001 10.36836,-2.59819 1.78429,-0.55817 3.59161,-0.80013 4.01627,-0.53768 0.42465,0.26245 3.01477,0.0223 5.75583,-0.53366 6.10305,-1.23787 30.75516,-1.08801 42.96487,0.26119 5.13893,0.56786 13.69508,2.5401 20,4.61012 19.64664,6.45034 32.08171,12.96475 43.35197,22.71099 8.87667,7.67631 20.26821,17.90812 22.30921,20.03798 2.0539,2.14332 2.43777,5.08489 0.796,6.09956 -0.58393,0.36089 -1.47279,1.73745 -1.97525,3.05902 -1.61268,4.24167 -5.3369,3.16012 -9.80381,-2.84714 -2.1471,-2.8875 -8.7988,-9.99836 -14.78154,-15.8019 -17.83339,-17.29923 -28.20009,-23.98743 -45.87862,-29.59916 l -11.9991,-3.8089 -20.5,0.0393 c -17.87614,0.0343 -22.29191,0.37826 -34.5,2.68761 -37.21151,7.0391 -53.21923,16.10113 -75.56849,42.77961 -2.51267,2.99939 -6.0395,7.61667 -7.83738,10.26062 -3.92095,5.76608 -14.62731,26.48938 -16.01053,30.99005 -2.95311,9.60877 -7.37042,20.3594 -8.81469,21.45277 -0.90814,0.6875 -3.8381,1.25 -6.51102,1.25 -4.31202,0 -5.23564,-0.41019 -8.19344,-3.63881 l -3.33359,-3.6388 -0.59374,6.8888 c -0.32655,3.78885 -0.43427,8.68881 -0.23936,10.88881 0.84753,9.56641 2.67786,22.57085 3.47558,24.69386 1.0797,2.87345 0.75075,24.37777 -0.75238,49.18569 -0.62915,10.38375 -1.35737,22.53375 -1.61826,27 -0.26089,4.46625 -0.73004,11.72045 -1.04256,16.12045 -0.46471,6.54272 -0.20127,8.97956 1.4462,13.37747 1.10793,2.95762 2.70724,6.14305 3.55404,7.07875 0.84679,0.93569 1.56552,2.34083 1.59718,3.12252 0.0317,0.78169 3.00589,3.89626 6.60941,6.92126 3.60351,3.025 7.51511,6.50473 8.69244,7.73272 1.17732,1.228 2.49584,2.2405 2.93004,2.25 0.4342,0.01 3.12819,1.59228 5.98665,3.51728 2.85846,1.925 5.5938,3.5 6.07854,3.5 0.48473,0 2.41985,1.35084 4.30026,3.00186 1.88041,1.65102 5.53982,4.11508 8.13202,5.47568 5.93089,3.11304 7.69049,4.69 12.95518,11.61046 2.33316,3.06695 5.70816,6.94333 7.5,8.61418 1.79185,1.67085 4.1579,4.53705 5.2579,6.36935 2.65914,4.42938 3.61257,5.913 6.07243,9.44921 2.51582,3.61667 5.42757,9.81383 5.42757,11.55165 0,0.69857 0.76295,2.11318 1.69545,3.14358 1.49133,1.6479 1.54471,2.43703 0.4434,6.5547 -0.68862,2.57469 -1.5969,4.91707 -2.01839,5.20529 -0.42149,0.28822 -1.0569,1.31154 -1.41202,2.27404 -0.76048,2.06117 -3.02533,2.27597 -4.88701,0.46349 -0.72679,-0.70758 -4.47143,-3.79239 -8.32143,-6.85512 -6.04036,-4.8052 -9.79993,-8.862 -17.01331,-18.35837 -1.40559,-1.85045 -1.42893,-1.77568 -0.3121,1 0.6639,1.65 1.92855,3.9 2.81033,5 0.88178,1.1 2.39947,4.7 3.37264,8 0.97318,3.3 2.19384,7.349 2.71259,8.99778 0.51874,1.64878 0.55558,3.12698 0.0818,3.28489 -0.47372,0.1579 -0.65043,1.39032 -0.39267,2.73869 0.53338,2.79018 -1.94224,9.62443 -4.80437,13.26302 -1.06024,1.34788 -1.68228,2.8478 -1.38232,3.33316 0.88774,1.43639 -1.22624,1.00477 -2.48043,-0.50644 z m -7.24612,-404.2277 c 3.10965,-0.88913 6.32891,-2.18591 7.15391,-2.88172 0.825,-0.69582 2.625,-1.6082 4,-2.02753 3.98893,-1.21649 7.0825,-3.60535 10.14664,-7.83528 2.39786,-3.31015 2.85247,-4.91271 2.84778,-10.03891 -0.011,-12.01108 -3.65628,-18.98965 -11.35887,-21.74543 -2.66405,-0.95313 -5.61983,-2.43531 -6.56838,-3.29375 C 437.11861,168.70235 435.6386,168 434.77825,168 c -0.86035,0 -1.83266,-0.6994 -2.16069,-1.55423 -0.46849,-1.22087 -1.78994,-1.46666 -6.16105,-1.14593 -3.06056,0.22456 -6.08031,0.92396 -6.71058,1.55423 -0.63026,0.63026 -1.84343,1.15078 -2.69593,1.15671 -2.96195,0.0206 -9.81616,7.76913 -11.58605,13.09776 -2.38731,7.1875 -1.71951,21.30713 1.20391,25.45489 1.13836,1.61511 2.36124,3.87702 2.71751,5.02646 0.69382,2.23845 2.76656,3.566 9.11463,5.83774 5.25252,1.87968 6.63342,1.8751 13.34609,-0.0442 z m -13.81634,-3.89936 c -10.74991,-4.87182 -14.33496,-16.83759 -8.59695,-28.69394 2.29189,-4.7357 3.68243,-6.22858 8.15013,-8.75 13.9032,-7.84648 33.2358,-0.26601 35.11845,13.77022 1.02826,7.66623 -4.22554,17.06839 -12.12413,21.69728 -5.78849,3.39227 -17.21355,4.39376 -22.5475,1.97644 z m 211.28457,0.64371 C 631.89144,212.35464 634,210.3971 634,209.77765 c 0,-0.61946 -1.0125,-0.23372 -2.25,0.85719 -3.72987,3.28804 -7.47435,4.36516 -15.17493,4.36516 -11.67868,0 -16.17943,-2.79583 -20.60445,-12.79933 -4.71395,-10.65667 -0.24079,-21.73025 10.82321,-26.79346 6.99759,-3.20231 13.08883,-2.96546 21.20617,0.82455 7.57669,3.53758 9.65959,5.81757 10.94864,11.98465 1.7356,8.30341 2.61393,8.68437 3.98263,1.72742 l 1.22088,-6.2056 -3.78359,-5.49361 c -4.08496,-5.93116 -7.75102,-8.08861 -17.18133,-10.11105 -15.59536,-3.3446 -33.10818,9.92971 -33.46967,25.36925 -0.16847,7.19552 2.33598,12.10625 8.84672,17.34673 9.67036,7.78363 22.25209,9.12495 30.75004,3.2782 z M 324.5,132.85466 c -5.14206,-1.92363 -11.65281,-7.94853 -13.81268,-12.78195 -1.68778,-3.77695 -2.0559,-6.74801 -2.11535,-17.07271 -0.0638,-11.076148 0.19309,-13.069541 2.25502,-17.5 3.54811,-7.623845 3.93166,-17.012776 1.14407,-28.005888 -3.62428,-14.292609 -2.33858,-21.042147 5.02421,-26.375724 7.66497,-5.552474 12.46112,-6.494283 25.90835,-5.087559 10.82876,1.132805 16.41405,1.006743 27.78177,-0.627046 2.34413,-0.336902 5.81106,-0.06501 7.88071,0.618032 5.19255,1.713697 11.25504,7.464295 11.9329,11.319002 C 390.80455,39.078368 391.18249,49.5 391.33886,60.5 l 0.28431,20 4.43842,7.458434 4.43841,7.458434 v 10.104192 c 0,9.35059 -0.23024,10.5438 -3.08706,15.99864 -1.69789,3.24195 -4.25029,6.76293 -5.672,7.82439 -3.41667,2.55092 -10.43066,3.50853 -20.24094,2.76348 -7.33083,-0.55675 -13.0786,-0.34996 -36,1.2952 -4.91109,0.35248 -9.15834,0.14085 -11,-0.54811 z m 20,-1.93749 c 5.5,-0.56717 16.3,-1.01503 24,-0.99523 7.7,0.0198 14.74253,-0.19559 15.65006,-0.47864 1.30897,-0.40825 1.54124,-1.38581 1.12366,-4.72897 -0.28952,-2.31788 -0.80705,-4.52128 -1.15006,-4.89644 -0.34301,-0.37516 -4.41241,-1.05016 -9.04311,-1.5 -5.39025,-0.52362 -8.57358,-1.28331 -8.84787,-2.11151 -0.29677,-0.89607 0.2931,-1.13984 1.91945,-0.79321 1.29133,0.27521 5.38537,0.73681 9.09787,1.02577 5.39178,0.41967 6.75,0.24152 6.75,-0.88535 0,-3.78179 -4.93247,-5.2645 -15.25,-4.58419 -2.76895,0.18258 -3.70187,-1.26308 -1.63818,-2.53851 1.65258,-1.02135 10.2299,-0.63113 13.51865,0.61503 1.57824,0.59802 3.90573,2.05804 5.1722,3.24449 1.95726,1.83359 2.44248,1.9361 3.23469,0.68339 0.51261,-0.81059 0.93891,-2.7113 0.94733,-4.2238 0.008,-1.5125 0.46531,-2.75 1.01531,-2.75 1.74831,0 1.07657,6.08373 -0.9926,8.98961 -1.51839,2.13238 -1.93487,4.13238 -1.75,8.40389 0.13343,3.08305 0.50166,5.60576 0.81829,5.60602 1.19043,9.9e-4 4.61616,-4.64401 6.26848,-8.49952 4.46477,-10.41806 3.86793,-21.595424 -1.73081,-32.414239 C 389.89997,80.910144 387.98127,71.022937 388.74525,63 l 0.42851,-4.5 -2.74581,2.877753 c -3.42735,3.592049 -3.65268,10.132362 -0.4404,12.78254 2.0471,1.688878 2.70104,3.839707 1.16744,3.839707 -1.5972,0 -3.95952,-3.506125 -5.20896,-7.731049 -0.70284,-2.376632 -2.02136,-4.475472 -3.00833,-4.788726 -2.62268,-0.832406 -3.69267,-2.543793 -4.36415,-6.980225 -0.53674,-3.5462 -0.47657,-3.716375 0.53036,-1.5 0.62469,1.375 1.6079,3.5125 2.18492,4.75 1.47388,3.160943 3.71643,2.856853 3.68731,-0.5 -0.0246,-2.833474 -1.1733,-8.232526 -2.49997,-11.75 -0.71484,-1.895316 -0.6351,-1.886598 1.52353,0.166552 1.59972,1.521561 2.42517,3.699756 2.77271,7.316645 l 0.49486,5.150092 3.36636,-3.262811 c 3.25071,-3.15071 3.36443,-3.522342 3.30993,-10.816645 -0.0747,-9.998437 -1.50818,-13.827984 -6.44356,-17.214137 -5.15046,-3.533719 -10.60811,-4.354367 -17.44268,-2.622795 l -5.41807,1.372697 3.67131,2.166128 c 3.81116,2.248637 7.67921,7.500492 7.6857,10.435257 0.006,2.807991 1.81566,3.025691 3.52063,0.423577 1.98373,-3.027544 1.17642,-8.493258 -1.7125,-11.594147 -1.10302,-1.183954 -1.78946,-2.368677 -1.52542,-2.632717 0.26404,-0.26404 1.88429,1.429363 3.60055,3.763118 4.14942,5.642328 4.20433,9.987988 0.16395,12.975167 -3.68624,2.725358 -4.96807,6.299808 -5.72202,15.956183 l -0.592,7.582165 4.63528,1.297796 C 376.91413,70.675914 379,71.65144 379,72.129961 379,73.335114 375.25836,73.227054 374.5,72 c -1.03887,-1.680921 -3.5,-1.112139 -3.5,0.80887 0,0.994879 0.66069,2.682379 1.4682,3.75 1.98766,2.627929 1.91448,4.003381 -0.1231,2.313575 -0.9102,-0.754845 -2.28128,-2.870938 -3.04684,-4.702429 -1.33789,-3.200682 -1.55515,-3.305695 -5.5951,-2.704431 -3.91613,0.582835 -4.0706,0.520008 -2.26203,-0.920016 C 362.50875,69.695506 364.42125,69 365.69113,69 c 1.98869,0 2.31876,-0.52003 2.38015,-3.75 0.0392,-2.0625 0.37071,-5.55 0.73667,-7.75 0.36595,-2.2 0.65753,-7.023051 0.64794,-10.717891 -0.0198,-7.61557 -1.86183,-11.139869 -7.26507,-13.899786 -1.74186,-0.889722 -3.73487,-2.067281 -4.42892,-2.616798 -0.69404,-0.549516 -6.96296,-1.584113 -13.93093,-2.299105 -11.57578,-1.187806 -13.06432,-1.149018 -17.25,0.449505 -4.35179,1.661967 -6.03534,3.506942 -3.33097,3.650369 16.92657,0.897702 18.27368,1.175171 19.83077,4.084618 1.53006,2.858958 -1.17519,5.534906 -6.41983,6.350273 -8.30098,1.290527 -15.92472,3.986115 -17.3333,6.128678 -1.69392,2.576598 -1.82822,9.813691 -0.40584,21.870137 1.36005,11.528159 1.39415,19.813305 0.0782,19 -0.55,-0.339919 -1.022,-3.628976 -1.0489,-7.309017 -0.0269,-3.680041 -0.60921,-11.770216 -1.29404,-17.978168 -1.85708,-16.834303 0.24186,-19.876812 15.80058,-22.903664 7.7153,-1.500964 8.60154,-1.898965 8.33765,-3.744318 -0.26961,-1.885234 -1.07531,-2.090241 -9.26308,-2.356942 -6.30983,-0.205532 -9.46815,-0.744932 -10.65599,-1.819906 -1.53093,-1.385473 -1.99401,-1.254546 -4.97107,1.405459 -4.35677,3.892766 -5.2306,10.169998 -2.60408,18.706556 2.26708,7.368337 3.32924,22.721563 1.9025,27.5 -0.57476,1.925 -2.01904,5.975 -3.20949,9 -3.36138,8.541382 -2.57077,25.37853 1.48364,31.59626 1.19349,1.83029 2.29664,2.08405 8.6946,2 L 329.5,123.5 v -9 -9 h -5.65583 c -9.4745,0 -8.98566,-2.07687 0.65583,-2.78633 4.5639,-0.33583 5.0276,-0.60105 5.31642,-3.040793 C 330.21644,96.293828 332,96.152621 332,99.5 c 0,2.36364 0.3,2.5 5.5,2.5 3.8069,0 5.5,0.39469 5.5,1.28215 0,0.89843 -1.39437,1.20055 -4.65896,1.00949 -2.56243,-0.14997 -5.14993,0.13341 -5.75,0.62974 -0.70579,0.58377 -0.91449,3.84663 -0.59104,9.24052 l 0.5,8.3381 3.5,0.26994 c 5.00066,0.38569 8,1.14858 8,2.03483 0,0.85934 0.32005,0.83176 -13.75,1.18466 -5.6375,0.1414 -10.25,0.60035 -10.25,1.01989 0,0.68649 4.06755,2.86783 8,4.29022 2.27348,0.82234 5.55523,0.74629 16.5,-0.38237 z m 9,-6.69 c -2.60236,-1.89236 -3.51529,-4.53461 -4.46577,-12.92499 -1.2166,-10.73963 -0.20554,-17.627768 3.52075,-23.986205 2.18927,-3.735709 2.80738,-4.192413 4.46989,-3.302666 3.59078,1.921727 3.84754,3.119131 5.5823,26.033161 0.60994,8.05654 0.51076,8.69682 -1.73007,11.16919 -2.58479,2.85187 -5.79466,4.16221 -7.3771,3.01151 z m 4.9045,-4.12164 c 1.19153,-1.31663 1.76531,-3.833 1.88115,-8.25 0.23408,-8.92545 -1.33509,-22.540887 -2.83409,-24.59089 -1.16666,-1.595494 -1.41125,-1.539553 -3.30643,0.756203 -1.99207,2.413142 -2.41092,3.702767 -3.56589,10.979157 -0.52666,3.31805 -0.34804,3.58719 3.43606,5.17721 3.81227,1.60186 5.95446,4.18636 4.59594,5.54488 -0.34971,0.34971 -1.96208,-0.34469 -3.58305,-1.54312 C 353.40723,106.98053 351.80078,106 351.4583,106 c -0.62887,0 0.13977,7.38661 1.24871,12 1.00647,4.18709 3.11015,4.96451 5.69749,2.10553 z m 8.32045,-18.71391 C 365.24368,99.910346 367.38823,99 372.35902,99 c 5.96128,0 8.06784,-1.333889 6.55899,-4.153196 C 378.16926,93.447748 376.77443,93 373.16482,93 370.54417,93 367.86,92.46 367.2,91.8 365.75201,90.352015 365.58914,84 367,84 c 0.55,0 1,1.526855 1,3.393011 C 368,91.16277 369.19611,92 374.58179,92 c 3.70676,0 3.8099,-0.205143 3.45257,-6.866646 -0.1766,-3.292128 0.098,-4.255664 1.1157,-3.915635 0.7993,0.267044 1.39355,2.048203 1.45684,4.366647 0.0588,2.153599 0.1713,4.478134 0.25,5.165634 0.22186,1.937972 4.0152,1.477261 7.34213,-0.891719 2.41324,-1.718381 3.17193,-1.876092 3.8383,-0.797877 1.20858,1.955523 -2.11762,3.917954 -6.96246,4.107794 C 382.83369,93.256016 381,93.449802 381,93.598834 c 0,0.149032 0.41138,1.352987 0.91418,2.675455 0.84759,2.229314 1.32114,2.370742 6.5,1.94127 C 393.09218,97.827623 394,98.016249 394,99.37617 394,100.78378 392.41303,101 382.08179,101 c -6.55502,0 -12.54102,0.23899 -13.30224,0.5311 -0.76121,0.2921 -1.68578,0.22934 -2.0546,-0.13948 z m -37.7899,-10.974953 c -0.44317,-6.254997 0.35643,-32.053126 1.05002,-33.877409 1.81286,-4.768166 8.9105,-6.099009 13.10869,-2.457942 2.18578,1.895721 2.44465,3.048247 2.90301,12.924772 C 346.60747,80.165354 346.14316,90 344.91118,90 344.40361,90 344,83.384472 344,75.0651 c 0,-8.214196 -0.44345,-16.101275 -0.98546,-17.526844 -1.07375,-2.824185 -4.36699,-4.520356 -7.29165,-3.75554 -3.97278,1.038906 -4.75527,4.211516 -5.07377,20.571542 -0.16741,8.59888 -0.60694,15.936896 -0.97675,16.306701 -0.3698,0.369806 -0.7016,0.259874 -0.73732,-0.244292 z M 350,77.735122 c 0,-0.911466 0.87071,-2.468398 1.9349,-3.459847 1.0642,-0.99145 2.39994,-3.025777 2.96832,-4.520727 0.87218,-2.293996 0.72988,-2.880538 -0.91198,-3.759238 -2.68915,-1.439187 -3.75968,-3.768974 -4.58272,-9.973357 -0.46712,-3.521385 -0.36217,-5.111343 0.30998,-4.695932 0.55892,0.345433 1.25086,2.709772 1.53764,5.254085 0.28678,2.544314 1.18445,5.289056 1.99482,6.099428 1.29787,1.29787 1.55531,0.749488 2.16088,-4.603066 0.89746,-7.932481 2.30859,-7.820403 2.18488,0.173532 -0.12557,8.114485 1.95641,8.474167 4.56859,0.789266 C 364.13475,53.245272 366,50.410322 366,53.211016 c 0,3.028905 -4.31232,12.885764 -6.04257,13.811765 -0.95005,0.508455 -1.98619,1.955662 -2.30252,3.216016 C 356.88756,73.296165 350,80.041036 350,77.735122 Z"
       id="path3" />
    <path
       style="fill:#000000"
       d="m 439.09221,621.6111 c -0.63398,-0.76389 -3.09525,-1.87804 -5.4695,-2.47588 -2.58624,-0.65123 -7.48502,-3.51818 -12.21976,-7.15148 -4.34662,-3.33548 -8.91545,-6.32011 -10.15295,-6.63253 -1.2375,-0.31241 -2.25,-0.92642 -2.25,-1.36446 0,-0.43804 -1.86889,-0.54577 -4.15308,-0.23939 -3.09418,0.41501 -3.96288,0.24928 -3.40707,-0.65003 0.54381,-0.87991 -0.29559,-1.12445 -3.09692,-0.90221 -4.14793,0.32908 -4.70918,0.64514 -9.86402,5.55488 -1.87673,1.7875 -3.84425,3.25 -4.37225,3.25 -0.52801,0 -1.11046,0.7812 -1.29433,1.736 -0.26705,1.38664 -1.01848,0.98415 -3.73401,-2 -1.86982,-2.0548 -4.02276,-3.736 -4.78431,-3.736 -1.0436,0 -1.2319,-0.92362 -0.7645,-3.75 0.44678,-2.70172 0.33488,-3.33879 -0.40032,-2.27896 -0.56124,0.80907 -1.28436,1.20713 -1.60692,0.88457 -0.61266,-0.61267 -4.27869,-12.5961 -5.12739,-16.76031 -0.69195,-3.39509 -2.27337,-6.0953 -3.56982,-6.0953 -0.60752,0 -1.73689,-0.7875 -2.50971,-1.75 -1.2341,-1.53698 -1.33001,-1.08052 -0.78791,3.75 0.33948,3.025 0.81905,6.2215 1.06573,7.10333 0.60435,2.16045 -6.99913,7.21999 -9.60655,6.39242 -2.79346,-0.88661 -7.58144,-7.46371 -8.35731,-11.4802 -0.39041,-2.02108 -2.27835,-5.17088 -4.49539,-7.5 -3.60946,-3.79194 -8.12298,-14.48596 -8.14008,-19.28655 -0.003,-0.95095 -0.69033,-3.04095 -1.52653,-4.64444 -0.8362,-1.6035 -1.67426,-4.0785 -1.86236,-5.5 -0.18809,-1.42151 -0.6743,-3.37206 -1.08046,-4.33456 -0.40616,-0.9625 -0.47945,-2.425 -0.16286,-3.25 0.31658,-0.825 0.20086,-1.5 -0.25716,-1.5 -0.89097,0 -4.28214,-8.17915 -4.76803,-11.5 -0.44524,-3.04309 -0.91776,-4.72762 -2.21864,-7.9094 -0.65423,-1.60017 -1.10303,-3.62517 -0.99734,-4.5 0.10569,-0.87483 -0.38359,-2.9406 -1.08729,-4.5906 -0.7037,-1.65 -1.38559,-5.7 -1.51532,-9 -0.12973,-3.3 -0.7619,-7.29991 -1.40484,-8.88869 -0.64293,-1.58878 -0.93528,-3.12237 -0.64966,-3.40799 0.28561,-0.28562 0.009,-1.13434 -0.615,-1.88604 -0.62386,-0.75171 -1.28023,-5.73208 -1.45859,-11.06749 -0.2492,-7.45411 0.0309,-10.24285 1.20942,-12.0415 1.40439,-2.14337 1.35982,-2.67438 -0.52862,-6.29743 -1.8061,-3.46507 -2.00318,-5.22738 -1.58617,-14.18377 0.37778,-8.11375 0.2431,-9.71049 -0.65173,-7.72709 -0.62034,1.375 -1.30782,4.525 -1.52774,7 -0.21991,2.475 -0.559,6.3 -0.75354,8.5 -0.19454,2.2 -0.42238,4 -0.5063,4 -0.0839,0 -0.31095,2.925 -0.50449,6.5 -0.19354,3.575 -0.4286,6.95 -0.52236,7.5 -0.23381,1.37153 0.66605,6.31912 1.87654,10.31755 0.61187,2.02107 0.65559,4.23488 0.11189,5.66492 -0.67102,1.76492 -0.51733,2.49133 0.61939,2.92753 0.95234,0.36544 1.28985,1.27962 0.91198,2.47017 -0.32992,1.03951 -0.0838,3.0227 0.547,4.40709 0.78244,1.71727 0.84162,3.42199 0.18625,5.36491 -0.72492,2.14909 -0.57984,3.43443 0.59129,5.23858 0.85354,1.31491 1.64821,4.39033 1.76593,6.83426 0.11772,2.44393 0.92446,5.22853 1.79277,6.18799 0.8683,0.95947 1.57873,2.69499 1.57873,3.85672 0,1.16174 0.45,2.39036 1,2.73028 0.55,0.33992 1,1.68992 1,3 0,1.31008 0.37592,2.61429 0.83537,2.89825 0.45945,0.28396 0.68668,2.9923 0.50496,6.01853 -0.28672,4.7749 -5.8e-4,5.83206 2.16463,7.99728 1.37227,1.37227 2.49504,2.93997 2.49504,3.48378 0,0.54381 0.84563,1.58105 1.87918,2.30498 1.64247,1.15043 4.0363,8.98991 4.58853,15.02681 0.087,0.95129 0.46738,2.03879 0.84525,2.41667 0.37787,0.37787 0.68704,3.08703 0.68704,6.02037 0,3.91867 -0.49591,5.79752 -1.86962,7.08333 -6.37058,5.96301 -8.19592,7.25143 -10.29057,7.26365 -3.59245,0.021 -6.87866,1.11447 -6.27662,2.08859 0.29737,0.48117 -0.1551,0.60785 -1.00551,0.28152 -0.85041,-0.32633 -1.30041,-0.99102 -1,-1.47709 0.30041,-0.48607 -0.0397,-0.6631 -0.75574,-0.39341 -0.71607,0.26969 -2.74003,-0.86046 -4.49771,-2.51145 C 301.57657,581.50038 299.49085,581.21432 298,584 c -0.5887,1.1 -1.55719,2 -2.1522,2 -0.59502,0 -2.76026,1.72949 -4.81165,3.84331 -2.0514,2.11383 -4.64228,4.08193 -5.75751,4.37357 -3.40743,0.89107 -7.94561,-3.56093 -9.6725,-9.48882 C 274.08401,579.50305 267.62004,571 265.17015,571 c -0.66544,0 -2.98813,-1.12255 -5.16153,-2.49456 -3.9034,-2.46411 -6.91965,-6.83103 -7.53458,-10.90857 -0.4821,-3.19673 -1.12939,-5.2635 -5.04137,-16.09687 -1.98607,-5.5 -3.97883,-11.35 -4.42834,-13 -2.04561,-7.50871 -2.98739,-12.71839 -2.45493,-13.57993 0.81007,-1.31073 -0.50593,-5.06497 -1.5494,-4.42007 -1.78989,1.10621 -2.22958,-4.39696 -1.59262,-19.93356 0.59073,-14.40921 0.45191,-16.73263 -1.34584,-22.52504 -1.26502,-4.07595 -1.63678,-6.68588 -1.00771,-7.07467 0.54824,-0.33883 1.16839,-1.93246 1.3781,-3.54139 1.11493,-8.55381 3.00497,-12.03267 11.36467,-20.91821 1.81313,-1.92718 4.61229,-4.18434 6.22036,-5.0159 1.60806,-0.83156 3.4605,-2.51977 4.11654,-3.75158 0.65603,-1.23181 2.43723,-3.58965 3.95822,-5.23965 7.26559,-7.88187 9.86376,-11.10163 9.88508,-12.25 0.0128,-0.6875 0.8107,-2.07807 1.7732,-3.09015 6.63413,-6.97589 7.60762,-8.50945 9.40979,-14.82337 2.07971,-7.28628 2.20633,-7.8441 3.70825,-16.33648 0.9492,-5.36706 1.49975,-7.41387 3.09329,-11.5 0.42898,-1.1 1.81035,-5.15 3.06969,-9 3.4777,-10.63182 6.11788,-14.02274 21.90816,-28.13785 2.99155,-2.67418 6.45147,-5.98715 7.6887,-7.36215 5.02951,-5.58953 8.37212,-9.80868 8.37212,-10.56756 0,-0.44195 0.91344,-1.77585 2.02986,-2.96423 3.13662,-3.33878 8.25268,-24.62887 7.47353,-31.10055 -0.93496,-7.76582 2.62059,-21.34522 8.67294,-33.12382 8.64404,-16.82234 11.12336,-25.86885 12.77961,-46.62994 1.04427,-13.09001 1.30661,-14.22534 4.57592,-19.80357 1.90748,-3.25462 3.46814,-6.32019 3.46814,-6.81238 0,-0.4922 1.02708,-2.00315 2.2824,-3.35766 1.25533,-1.35452 3.3581,-3.86637 4.67284,-5.58189 3.91484,-5.10824 11.01697,-9.54185 17.54476,-10.95259 3.3,-0.71317 8.13236,-1.97885 10.73858,-2.81261 2.60622,-0.83377 5.36412,-1.2759 6.12867,-0.98252 0.76454,0.29339 3.07759,0.15283 5.14009,-0.31234 4.99778,-1.12718 18.00115,0.96145 24.49266,3.93406 0.825,0.37778 3.29911,0.79415 5.49803,0.92527 2.19892,0.13111 4.42642,0.66678 4.95,1.19036 0.52358,0.52358 1.74199,0.95197 2.70756,0.95197 0.96558,0 3.41337,1.125 5.43955,2.5 2.02617,1.375 4.43513,2.5 5.35324,2.5 0.9181,0 4.1178,1.48755 7.11045,3.30566 2.99264,1.81811 6.56617,3.95561 7.94117,4.75 1.375,0.79439 4.09342,2.64514 6.04094,4.11279 5.64768,4.25609 14.08743,5.90695 30.25133,5.91734 17.26628,0.0111 32.65641,-0.78627 38.70773,-2.00545 14.52576,-2.92655 23.91394,-5.6391 27.47215,-7.9376 6.12091,-3.95393 7.89059,-5.00828 9.52785,-5.67652 1.62919,-0.66494 3.03211,-1.40718 9.77169,-5.16984 3.5327,-1.97229 5.7753,-2.45788 11.0788,-2.39887 3.65723,0.0407 7.77451,0.28818 9.14951,0.54998 14.23652,2.71065 17,3.69538 17,6.05776 0,0.78918 1.35,2.43297 3,3.65287 1.65,1.2199 3,2.72374 3,3.34188 0,0.61814 1.30729,2.0904 2.90508,3.2717 4.32911,3.20065 7.46253,13.32065 6.65614,21.49733 -0.33798,3.42703 -0.84886,15.12473 -1.13529,25.99488 l -0.52077,19.76391 3.51732,8.62733 c 3.10503,7.61604 3.44617,9.30813 2.91028,14.43525 -0.59357,5.67896 -0.53193,5.87012 2.77569,8.60876 1.8605,1.54046 6.11671,5.324 9.45824,8.40787 3.34153,3.08387 6.50976,5.78387 7.04053,6 0.53076,0.21613 1.96127,1.81244 3.1789,3.54734 1.7793,2.53518 2.21388,4.54309 2.21388,10.229 0,6.97438 0.58253,9.39701 7.00528,29.13368 3.61512,11.10899 6.31427,27.05958 5.47513,32.35521 -1.96947,12.42901 -4.15682,20.22848 -9.03616,32.22044 -2.9795,7.32271 -5.15369,14.0009 -4.83154,14.84042 0.83219,2.16864 7.07739,5.81688 9.95758,5.81688 2.36915,0 3.34811,2.06437 1.51593,3.19671 -0.83602,0.51669 2.65825,8.69161 3.987,9.3277 0.31528,0.15092 0.38168,1.5795 0.14757,3.17461 -0.23411,1.5951 0.14295,4.62162 0.83791,6.72559 0.69496,2.10396 1.35618,8.32539 1.46938,13.82539 0.2316,11.2528 2.2132,21.91778 5.8849,31.67257 1.36586,3.62876 2.27483,6.80628 2.01994,7.06117 -0.25488,0.25489 -0.61962,3.56907 -0.81051,7.36485 -0.19089,3.79577 -0.82913,8.08957 -1.41831,9.54177 -0.58917,1.4522 -1.16491,6.4022 -1.27941,11 -0.1145,4.5978 -0.61798,8.62578 -1.11885,8.95105 -0.50087,0.32528 -1.08548,2.50116 -1.29913,4.83529 -0.21365,2.33414 -1.09007,5.31467 -1.94759,6.62341 -1.95601,2.98526 -1.97204,3.82232 -0.0591,3.08826 0.94663,-0.36325 1.5,0.0123 1.5,1.01801 0,1.24036 -0.67071,1.45948 -3.02565,0.98849 -2.70124,-0.54025 -3.19917,-0.24127 -4.64392,2.78839 -0.89004,1.86644 -2.11599,3.2051 -2.72434,2.9748 -0.60835,-0.2303 -2.45609,0.76119 -4.10609,2.2033 -4.5682,3.99265 -9.77556,7.0946 -13.75405,8.19312 -3.1236,0.86247 -3.84309,0.71237 -5.5445,-1.1567 -1.07531,-1.18128 -2.48778,-3.8121 -3.13883,-5.84627 -1.04601,-3.26821 -0.88988,-4.42599 1.34198,-9.95152 1.38914,-3.43916 2.32898,-6.44975 2.08853,-6.69019 -0.24044,-0.24045 -0.86529,0.68886 -1.38855,2.06513 -0.52325,1.37626 -1.60315,2.75241 -2.39976,3.0581 -0.79661,0.30569 -2.47073,2.66768 -3.72026,5.24886 -1.24953,2.58119 -3.55723,6.00797 -5.12822,7.61507 -1.57099,1.6071 -2.85634,3.25946 -2.85634,3.67191 0,0.41245 -1.2375,1.48686 -2.75,2.38757 -1.5125,0.90072 -4.1,2.96011 -5.75,4.57643 -1.65,1.61632 -4.12327,3.29188 -5.49616,3.72346 -1.37289,0.43159 -2.94789,1.35782 -3.5,2.0583 -0.55211,0.70048 -3.11914,1.54462 -5.70451,1.87588 -4.69534,0.60159 -4.70139,0.59849 -5.32708,-2.73673 -0.78127,-4.16451 1.15317,-15.1974 3.36629,-19.19937 0.9138,-1.65243 2.67396,-4.27644 3.91146,-5.83114 1.2375,-1.55469 2.25,-3.46719 2.25,-4.25 0,-0.7828 0.45,-1.42327 1,-1.42327 0.55,0 1,-0.49303 1,-1.09563 0,-0.6026 0.93064,-2.4026 2.06809,-4 2.78737,-3.91449 1.29455,-3.63048 -3.56809,0.67882 -2.2,1.94966 -5.2375,4.20258 -6.75,5.0065 -1.5125,0.80392 -2.75,1.90673 -2.75,2.45069 0,1.83685 -6.35252,4.90407 -9.46247,4.56881 -2.20653,-0.23786 -3.12497,-0.91324 -3.35713,-2.46868 -0.43172,-2.89246 6.0445,-16.13075 9.65487,-19.73588 1.59987,-1.59755 4.1587,-4.92963 5.68628,-7.40463 1.52759,-2.475 3.15338,-4.74737 3.61288,-5.04971 1.22093,-0.80335 2.27833,-6.95029 1.19559,-6.95029 -0.50599,0 -1.77732,2.07899 -2.82517,4.61998 -3.88686,9.42536 -11.99971,19.10973 -24.50485,29.25161 -3.025,2.45333 -8.2,7.14438 -11.5,10.42456 -3.3,3.28018 -8.475,7.56502 -11.5,9.52187 -3.025,1.95684 -6.2472,4.50557 -7.16045,5.66383 -2.86548,3.63425 -11.97269,7.39957 -19.45883,8.04515 -3.7844,0.32636 -8.68072,0.7481 -10.88072,0.9372 -2.2,0.18911 -6.025,0.82847 -8.5,1.42082 -11.30201,2.70492 -15.82129,3.14575 -35.75,3.4872 -16.8294,0.28835 -21.25,0.0968 -21.25,-0.92073 0,-0.70665 -0.5625,-1.47414 -1.25,-1.70554 -0.99598,-0.33521 -0.99774,-0.72647 -0.009,-1.92534 0.68273,-0.82754 0.94523,-1.80072 0.58334,-2.16262 -0.3619,-0.36189 0.26043,-0.65799 1.38295,-0.65799 1.12251,0 3.99297,-0.68872 6.37878,-1.53048 2.38582,-0.84177 6.85434,-1.67887 9.93006,-1.86023 3.07571,-0.18136 7.14276,-1.02487 9.03788,-1.87447 1.89512,-0.84959 5.65027,-1.81308 8.34478,-2.14108 2.69451,-0.32799 5.52609,-1.1167 6.29238,-1.75267 1.0013,-0.83099 1.69841,-0.85117 2.47787,-0.0717 1.23387,1.23387 5.77857,-0.10625 7.06029,-2.08192 0.5304,-0.81758 1.00396,-0.85788 1.52035,-0.12938 0.52087,0.73481 5.25944,0.50086 15.51066,-0.76581 12.85506,-1.5884 15.3868,-2.20912 19.6106,-4.80806 2.66747,-1.6413 5.33053,-2.98419 5.91791,-2.98419 0.58739,0 1.66262,-0.58092 2.3894,-1.29092 0.72679,-0.71001 2.33801,-1.99274 3.5805,-2.85051 C 584.08931,537.4884 603,519.69373 603,518.10723 c 0,-0.463 2.36359,-3.26404 5.25241,-6.22452 5.348,-5.48067 9.70704,-11.71614 17.74759,-25.38741 2.475,-4.20822 5.44731,-8.8537 6.60513,-10.3233 1.15783,-1.4696 2.6762,-4.472 3.37418,-6.672 0.69797,-2.2 2.38352,-6.475 3.74566,-9.5 1.36214,-3.025 2.49347,-5.725 2.51405,-6 0.0206,-0.275 2.15336,-3.65 4.7395,-7.5 C 652.29372,438.58723 657,429.58096 657,427.32221 c 0,-0.83241 0.83043,-2.70794 1.8454,-4.16784 1.01496,-1.4599 3.00189,-5.12937 4.41538,-8.15437 1.41349,-3.025 5.08307,-10.80372 8.1546,-17.28603 3.07154,-6.48232 5.58462,-12.1392 5.58462,-12.57085 0,-0.43165 1.81621,-5.60447 4.03603,-11.49515 5.21083,-13.82788 5.89368,-17.82091 4.85921,-28.41468 -1.58904,-16.27294 -2.70776,-22.33026 -6.23017,-33.73329 -1.35917,-4.4 -3.0382,-10.475 -3.73119,-13.5 -0.69974,-3.05449 -2.18792,-6.31854 -3.34693,-7.34091 -1.14782,-1.0125 -3.43695,-3.05542 -5.08695,-4.53981 -1.65,-1.4844 -6.02655,-5.04501 -9.72567,-7.91247 l -6.72568,-5.21355 0.60068,3.00337 c 0.39889,1.99447 0.20012,3.00337 -0.59172,3.00337 -0.73731,0 -0.95012,0.7633 -0.55761,2 0.37034,1.16683 0.1797,2 -0.45761,2 -0.60082,0 -1.36239,-1.35 -1.69239,-3 -0.33,-1.65 -0.99375,-3 -1.475,-3 -0.48125,0 -0.875,-0.69473 -0.875,-1.54384 0,-0.91559 -0.71214,-1.42426 -1.75,-1.25 -0.97786,0.16419 -1.63969,-0.25769 -1.5,-0.95616 0.1375,-0.6875 -0.2,-1.25 -0.75,-1.25 -0.55,0 -1,-0.675 -1,-1.5 0,-0.825 -0.42508,-1.5 -0.94462,-1.5 -0.51954,0 -3.48829,-2.3625 -6.59722,-5.25 -3.10894,-2.8875 -7.52136,-6.31567 -9.80538,-7.61816 -2.28403,-1.30248 -5.27778,-3.1187 -6.65278,-4.03603 -2.68951,-1.79431 -4.81705,-2.83165 -12.29749,-5.99597 -2.63862,-1.11617 -5.91966,-2.91209 -7.29118,-3.99093 -1.51309,-1.19019 -3.46058,-1.7862 -4.95251,-1.51566 -1.35235,0.24522 -2.45882,0.0482 -2.45882,-0.43783 0,-0.96377 -8.27991,-4.41826 -11.5,-4.79796 -7.01062,-0.82666 -23.79687,-2.38626 -28,-2.60146 -2.75,-0.1408 -5.45,-0.51782 -6,-0.83781 -0.55,-0.32 -2.8,-0.43476 -5,-0.25502 -7.39585,0.60423 -19.94908,1.36242 -26.5,1.60055 -3.575,0.12995 -6.74156,0.5576 -7.03679,0.95032 -0.29524,0.39272 -2.09524,0.94942 -4,1.2371 -10.37906,1.56756 -30.05504,7.14929 -35.83741,10.16644 -1.44419,0.75355 -3.1883,1.37287 -3.8758,1.37626 -0.6875,0.003 -2.16641,0.92257 -3.28647,2.04263 -1.12007,1.12007 -2.39808,1.813 -2.84003,1.53986 -0.44196,-0.27315 -2.65816,1.28544 -4.92489,3.46352 -2.26673,2.17808 -4.40441,3.96015 -4.75038,3.96015 -0.34598,0 -2.72586,2.16115 -5.28864,4.80256 -2.56277,2.64141 -6.77574,6.24834 -9.36215,8.0154 -2.58641,1.76707 -5.49594,4.55591 -6.46561,6.19744 -0.96967,1.64153 -2.11602,2.9846 -2.54744,2.9846 -0.43141,0 -0.78439,0.675 -0.78439,1.5 0,0.825 -0.63486,1.5 -1.41079,1.5 -0.77594,0 -2.39173,2.02635 -3.59066,4.50299 -1.25116,2.58456 -2.6331,4.22287 -3.24371,3.84549 -0.62611,-0.38695 -0.77078,-0.18329 -0.3516,0.49496 0.72592,1.17456 -2.24488,7.15656 -3.55412,7.15656 -0.39582,0 -1.29274,1.5848 -1.99316,3.52178 -0.70042,1.93697 -2.36389,4.23624 -3.69661,5.10947 -1.90578,1.24871 -2.12913,1.76939 -1.04611,2.43874 1.11328,0.68804 0.99489,1.15244 -0.61811,2.42471 -1.09732,0.86552 -2.89513,1.95711 -3.99513,2.42577 -1.39688,0.59514 -2.5589,2.92191 -3.85338,7.71581 -1.01935,3.77505 -3.15685,9.40171 -4.75,12.5037 -1.59314,3.10199 -2.89662,5.94513 -2.89662,6.31809 0,1.12117 6.11355,-3.59039 6.72444,-5.18237 0.3114,-0.81147 1.51328,-2.50385 2.67087,-3.76084 3.40767,-3.70033 6.67394,-9.5938 5.95855,-10.75132 -0.36764,-0.59485 -0.19779,-0.78512 0.38135,-0.42719 0.58757,0.36314 3.65265,-3.39579 7.00887,-8.59549 12.74964,-19.75265 39.46062,-47.74625 53.75592,-56.33718 9.04896,-5.43809 23.31666,-10.68015 37.87581,-13.91587 3.91831,-0.87083 8.58407,-2.04001 10.36836,-2.59819 1.78429,-0.55817 3.59161,-0.80013 4.01627,-0.53768 0.42465,0.26245 3.01477,0.0223 5.75583,-0.53366 6.10305,-1.23787 30.75516,-1.08801 42.96487,0.26119 5.13893,0.56786 13.69508,2.5401 20,4.61012 19.64664,6.45034 32.08171,12.96475 43.35197,22.71099 8.87667,7.67631 20.26821,17.90812 22.30921,20.03798 2.0539,2.14332 2.43777,5.08489 0.796,6.09956 -0.58393,0.36089 -1.47279,1.73745 -1.97525,3.05902 -1.61268,4.24167 -5.3369,3.16012 -9.80381,-2.84714 -2.1471,-2.8875 -8.7988,-9.99836 -14.78154,-15.8019 -17.83339,-17.29923 -28.20009,-23.98743 -45.87862,-29.59916 l -11.9991,-3.8089 -20.5,0.0393 c -17.87614,0.0343 -22.29191,0.37826 -34.5,2.68761 -37.21151,7.0391 -53.21923,16.10113 -75.56849,42.77961 -2.51267,2.99939 -6.0395,7.61667 -7.83738,10.26062 -3.92095,5.76608 -14.62731,26.48938 -16.01053,30.99005 -2.95311,9.60877 -7.37042,20.3594 -8.81469,21.45277 -0.90814,0.6875 -3.8381,1.25 -6.51102,1.25 -4.31202,0 -5.23564,-0.41019 -8.19344,-3.63881 l -3.33359,-3.6388 -0.59374,6.8888 c -0.32655,3.78885 -0.43427,8.68881 -0.23936,10.88881 0.84753,9.56641 2.67786,22.57085 3.47558,24.69386 1.0797,2.87345 0.75075,24.37777 -0.75238,49.18569 -0.62915,10.38375 -1.35737,22.53375 -1.61826,27 -0.26089,4.46625 -0.73004,11.72045 -1.04256,16.12045 -0.46471,6.54272 -0.20127,8.97956 1.4462,13.37747 1.10793,2.95762 2.70724,6.14305 3.55404,7.07875 0.84679,0.93569 1.56552,2.34083 1.59718,3.12252 0.0317,0.78169 3.00589,3.89626 6.60941,6.92126 3.60351,3.025 7.51511,6.50473 8.69244,7.73272 1.17732,1.228 2.49584,2.2405 2.93004,2.25 0.4342,0.01 3.12819,1.59228 5.98665,3.51728 2.85846,1.925 5.5938,3.5 6.07854,3.5 0.48473,0 2.41985,1.35084 4.30026,3.00186 1.88041,1.65102 5.53982,4.11508 8.13202,5.47568 5.93089,3.11304 7.69049,4.69 12.95518,11.61046 2.33316,3.06695 5.70816,6.94333 7.5,8.61418 1.79185,1.67085 4.1579,4.53705 5.2579,6.36935 2.65914,4.42938 3.61257,5.913 6.07243,9.44921 2.51582,3.61667 5.42757,9.81383 5.42757,11.55165 0,0.69857 0.76295,2.11318 1.69545,3.14358 1.49133,1.6479 1.54471,2.43703 0.4434,6.5547 -0.68862,2.57469 -1.5969,4.91707 -2.01839,5.20529 -0.42149,0.28822 -1.0569,1.31154 -1.41202,2.27404 -0.76048,2.06117 -3.02533,2.27597 -4.88701,0.46349 -0.72679,-0.70758 -4.47143,-3.79239 -8.32143,-6.85512 -6.04036,-4.8052 -9.79993,-8.862 -17.01331,-18.35837 -1.40559,-1.85045 -1.42893,-1.77568 -0.3121,1 0.6639,1.65 1.92855,3.9 2.81033,5 0.88178,1.1 2.39947,4.7 3.37264,8 0.97318,3.3 2.19384,7.349 2.71259,8.99778 0.51874,1.64878 0.55558,3.12698 0.0818,3.28489 -0.47372,0.1579 -0.65043,1.39032 -0.39267,2.73869 0.53338,2.79018 -1.94224,9.62443 -4.80437,13.26302 -1.06024,1.34788 -1.68228,2.8478 -1.38232,3.33316 0.88774,1.43639 -1.22624,1.00477 -2.48043,-0.50644 z m -7.24612,-404.2277 c 3.10965,-0.88913 6.32891,-2.18591 7.15391,-2.88172 0.825,-0.69582 2.625,-1.6082 4,-2.02753 3.98893,-1.21649 7.0825,-3.60535 10.14664,-7.83528 2.39786,-3.31015 2.85247,-4.91271 2.84778,-10.03891 -0.011,-12.01108 -3.65628,-18.98965 -11.35887,-21.74543 -2.66405,-0.95313 -5.61983,-2.43531 -6.56838,-3.29375 C 437.11861,168.70235 435.6386,168 434.77825,168 c -0.86035,0 -1.83266,-0.6994 -2.16069,-1.55423 -0.46849,-1.22087 -1.78994,-1.46666 -6.16105,-1.14593 -3.06056,0.22456 -6.08031,0.92396 -6.71058,1.55423 -0.63026,0.63026 -1.84343,1.15078 -2.69593,1.15671 -2.96195,0.0206 -9.81616,7.76913 -11.58605,13.09776 -2.38731,7.1875 -1.71951,21.30713 1.20391,25.45489 1.13836,1.61511 2.36124,3.87702 2.71751,5.02646 0.69382,2.23845 2.76656,3.566 9.11463,5.83774 5.25252,1.87968 6.63342,1.8751 13.34609,-0.0442 z m -13.81634,-3.89936 c -10.74991,-4.87182 -14.33496,-16.83759 -8.59695,-28.69394 2.29189,-4.7357 3.68243,-6.22858 8.15013,-8.75 13.9032,-7.84648 33.2358,-0.26601 35.11845,13.77022 1.02826,7.66623 -4.22554,17.06839 -12.12413,21.69728 -5.78849,3.39227 -17.21355,4.39376 -22.5475,1.97644 z m 211.28457,0.64371 C 631.89144,212.35464 634,210.3971 634,209.77765 c 0,-0.61946 -1.0125,-0.23372 -2.25,0.85719 -3.72987,3.28804 -7.47435,4.36516 -15.17493,4.36516 -11.67868,0 -16.17943,-2.79583 -20.60445,-12.79933 -4.71395,-10.65667 -0.24079,-21.73025 10.82321,-26.79346 6.99759,-3.20231 13.08883,-2.96546 21.20617,0.82455 7.57669,3.53758 9.65959,5.81757 10.94864,11.98465 1.7356,8.30341 2.61393,8.68437 3.98263,1.72742 l 1.22088,-6.2056 -3.78359,-5.49361 c -4.08496,-5.93116 -7.75102,-8.08861 -17.18133,-10.11105 -15.59536,-3.3446 -33.10818,9.92971 -33.46967,25.36925 -0.16847,7.19552 2.33598,12.10625 8.84672,17.34673 9.67036,7.78363 22.25209,9.12495 30.75004,3.2782 z M 324.5,132.85466 c -5.14206,-1.92363 -11.65281,-7.94853 -13.81268,-12.78195 -1.68778,-3.77695 -2.0559,-6.74801 -2.11535,-17.07271 -0.0638,-11.076148 0.19309,-13.069541 2.25502,-17.5 3.54811,-7.623845 3.93166,-17.012776 1.14407,-28.005888 -3.62428,-14.292609 -2.33858,-21.042147 5.02421,-26.375724 7.66497,-5.552474 12.46112,-6.494283 25.90835,-5.087559 10.82876,1.132805 16.41405,1.006743 27.78177,-0.627046 2.34413,-0.336902 5.81106,-0.06501 7.88071,0.618032 5.19255,1.713697 11.25504,7.464295 11.9329,11.319002 C 390.80455,39.078368 391.18249,49.5 391.33886,60.5 l 0.28431,20 4.43842,7.458434 4.43841,7.458434 v 10.104192 c 0,9.35059 -0.23024,10.5438 -3.08706,15.99864 -1.69789,3.24195 -4.25029,6.76293 -5.672,7.82439 -3.41667,2.55092 -10.43066,3.50853 -20.24094,2.76348 -7.33083,-0.55675 -13.0786,-0.34996 -36,1.2952 -4.91109,0.35248 -9.15834,0.14085 -11,-0.54811 z m 20,-1.93749 c 5.5,-0.56717 16.3,-1.01503 24,-0.99523 7.7,0.0198 14.74253,-0.19559 15.65006,-0.47864 1.30897,-0.40825 1.54124,-1.38581 1.12366,-4.72897 -0.28952,-2.31788 -0.80705,-4.52128 -1.15006,-4.89644 -0.34301,-0.37516 -4.41241,-1.05016 -9.04311,-1.5 -5.39025,-0.52362 -8.57358,-1.28331 -8.84787,-2.11151 -0.29677,-0.89607 0.2931,-1.13984 1.91945,-0.79321 1.29133,0.27521 5.38537,0.73681 9.09787,1.02577 5.39178,0.41967 6.75,0.24152 6.75,-0.88535 0,-3.78179 -4.93247,-5.2645 -15.25,-4.58419 -2.76895,0.18258 -3.70187,-1.26308 -1.63818,-2.53851 1.65258,-1.02135 10.2299,-0.63113 13.51865,0.61503 1.57824,0.59802 3.90573,2.05804 5.1722,3.24449 1.95726,1.83359 2.44248,1.9361 3.23469,0.68339 0.51261,-0.81059 0.93891,-2.7113 0.94733,-4.2238 0.008,-1.5125 0.46531,-2.75 1.01531,-2.75 1.74831,0 1.07657,6.08373 -0.9926,8.98961 -1.51839,2.13238 -1.93487,4.13238 -1.75,8.40389 0.13343,3.08305 0.50166,5.60576 0.81829,5.60602 1.19043,9.9e-4 4.61616,-4.64401 6.26848,-8.49952 4.46477,-10.41806 3.86793,-21.595424 -1.73081,-32.414239 C 389.89997,80.910144 387.98127,71.022937 388.74525,63 l 0.42851,-4.5 -2.74581,2.877753 c -3.42735,3.592049 -3.65268,10.132362 -0.4404,12.78254 2.0471,1.688878 2.70104,3.839707 1.16744,3.839707 -1.5972,0 -3.95952,-3.506125 -5.20896,-7.731049 -0.70284,-2.376632 -2.02136,-4.475472 -3.00833,-4.788726 -2.62268,-0.832406 -3.69267,-2.543793 -4.36415,-6.980225 -0.53674,-3.5462 -0.47657,-3.716375 0.53036,-1.5 0.62469,1.375 1.6079,3.5125 2.18492,4.75 1.47388,3.160943 3.71643,2.856853 3.68731,-0.5 -0.0246,-2.833474 -1.1733,-8.232526 -2.49997,-11.75 -0.71484,-1.895316 -0.6351,-1.886598 1.52353,0.166552 1.59972,1.521561 2.42517,3.699756 2.77271,7.316645 l 0.49486,5.150092 3.36636,-3.262811 c 3.25071,-3.15071 3.36443,-3.522342 3.30993,-10.816645 -0.0747,-9.998437 -1.50818,-13.827984 -6.44356,-17.214137 -5.15046,-3.533719 -10.60811,-4.354367 -17.44268,-2.622795 l -5.41807,1.372697 3.67131,2.166128 c 3.81116,2.248637 7.67921,7.500492 7.6857,10.435257 0.006,2.807991 1.81566,3.025691 3.52063,0.423577 1.98373,-3.027544 1.17642,-8.493258 -1.7125,-11.594147 -1.10302,-1.183954 -1.78946,-2.368677 -1.52542,-2.632717 0.26404,-0.26404 1.88429,1.429363 3.60055,3.763118 4.14942,5.642328 4.20433,9.987988 0.16395,12.975167 -3.68624,2.725358 -4.96807,6.299808 -5.72202,15.956183 l -0.592,7.582165 4.63528,1.297796 C 376.91413,70.675914 379,71.65144 379,72.129961 379,73.335114 375.25836,73.227054 374.5,72 c -1.03887,-1.680921 -3.5,-1.112139 -3.5,0.80887 0,0.994879 0.66069,2.682379 1.4682,3.75 1.98766,2.627929 1.91448,4.003381 -0.1231,2.313575 -0.9102,-0.754845 -2.28128,-2.870938 -3.04684,-4.702429 -1.33789,-3.200682 -1.55515,-3.305695 -5.5951,-2.704431 -3.91613,0.582835 -4.0706,0.520008 -2.26203,-0.920016 C 362.50875,69.695506 364.42125,69 365.69113,69 c 1.98869,0 2.31876,-0.52003 2.38015,-3.75 0.0392,-2.0625 0.37071,-5.55 0.73667,-7.75 0.36595,-2.2 0.65753,-7.023051 0.64794,-10.717891 -0.0198,-7.61557 -1.86183,-11.139869 -7.26507,-13.899786 -1.74186,-0.889722 -3.73487,-2.067281 -4.42892,-2.616798 -0.69404,-0.549516 -6.96296,-1.584113 -13.93093,-2.299105 -11.57578,-1.187806 -13.06432,-1.149018 -17.25,0.449505 -4.35179,1.661967 -6.03534,3.506942 -3.33097,3.650369 16.92657,0.897702 18.27368,1.175171 19.83077,4.084618 1.53006,2.858958 -1.17519,5.534906 -6.41983,6.350273 -8.30098,1.290527 -15.92472,3.986115 -17.3333,6.128678 -1.69392,2.576598 -1.82822,9.813691 -0.40584,21.870137 1.36005,11.528159 1.39415,19.813305 0.0782,19 -0.55,-0.339919 -1.022,-3.628976 -1.0489,-7.309017 -0.0269,-3.680041 -0.60921,-11.770216 -1.29404,-17.978168 -1.85708,-16.834303 0.24186,-19.876812 15.80058,-22.903664 7.7153,-1.500964 8.60154,-1.898965 8.33765,-3.744318 -0.26961,-1.885234 -1.07531,-2.090241 -9.26308,-2.356942 -6.30983,-0.205532 -9.46815,-0.744932 -10.65599,-1.819906 -1.53093,-1.385473 -1.99401,-1.254546 -4.97107,1.405459 -4.35677,3.892766 -5.2306,10.169998 -2.60408,18.706556 2.26708,7.368337 3.32924,22.721563 1.9025,27.5 -0.57476,1.925 -2.01904,5.975 -3.20949,9 -3.36138,8.541382 -2.57077,25.37853 1.48364,31.59626 1.19349,1.83029 2.29664,2.08405 8.6946,2 L 329.5,123.5 v -9 -9 h -5.65583 c -9.4745,0 -8.98566,-2.07687 0.65583,-2.78633 4.5639,-0.33583 5.0276,-0.60105 5.31642,-3.040793 C 330.21644,96.293828 332,96.152621 332,99.5 c 0,2.36364 0.3,2.5 5.5,2.5 3.8069,0 5.5,0.39469 5.5,1.28215 0,0.89843 -1.39437,1.20055 -4.65896,1.00949 -2.56243,-0.14997 -5.14993,0.13341 -5.75,0.62974 -0.70579,0.58377 -0.91449,3.84663 -0.59104,9.24052 l 0.5,8.3381 3.5,0.26994 c 5.00066,0.38569 8,1.14858 8,2.03483 0,0.85934 0.32005,0.83176 -13.75,1.18466 -5.6375,0.1414 -10.25,0.60035 -10.25,1.01989 0,0.68649 4.06755,2.86783 8,4.29022 2.27348,0.82234 5.55523,0.74629 16.5,-0.38237 z m 9,-6.69 c -2.60236,-1.89236 -3.51529,-4.53461 -4.46577,-12.92499 -1.2166,-10.73963 -0.20554,-17.627768 3.52075,-23.986205 2.18927,-3.735709 2.80738,-4.192413 4.46989,-3.302666 3.59078,1.921727 3.84754,3.119131 5.5823,26.033161 0.60994,8.05654 0.51076,8.69682 -1.73007,11.16919 -2.58479,2.85187 -5.79466,4.16221 -7.3771,3.01151 z m 4.9045,-4.12164 c 1.19153,-1.31663 1.76531,-3.833 1.88115,-8.25 0.23408,-8.92545 -1.33509,-22.540887 -2.83409,-24.59089 -1.16666,-1.595494 -1.41125,-1.539553 -3.30643,0.756203 -1.99207,2.413142 -2.41092,3.702767 -3.56589,10.979157 -0.52666,3.31805 -0.34804,3.58719 3.43606,5.17721 3.81227,1.60186 5.95446,4.18636 4.59594,5.54488 -0.34971,0.34971 -1.96208,-0.34469 -3.58305,-1.54312 C 353.40723,106.98053 351.80078,106 351.4583,106 c -0.62887,0 0.13977,7.38661 1.24871,12 1.00647,4.18709 3.11015,4.96451 5.69749,2.10553 z m 8.32045,-18.71391 C 365.24368,99.910346 367.38823,99 372.35902,99 c 5.96128,0 8.06784,-1.333889 6.55899,-4.153196 C 378.16926,93.447748 376.77443,93 373.16482,93 370.54417,93 367.86,92.46 367.2,91.8 365.75201,90.352015 365.58914,84 367,84 c 0.55,0 1,1.526855 1,3.393011 C 368,91.16277 369.19611,92 374.58179,92 c 3.70676,0 3.8099,-0.205143 3.45257,-6.866646 -0.1766,-3.292128 0.098,-4.255664 1.1157,-3.915635 0.7993,0.267044 1.39355,2.048203 1.45684,4.366647 0.0588,2.153599 0.1713,4.478134 0.25,5.165634 0.22186,1.937972 4.0152,1.477261 7.34213,-0.891719 2.41324,-1.718381 3.17193,-1.876092 3.8383,-0.797877 1.20858,1.955523 -2.11762,3.917954 -6.96246,4.107794 C 382.83369,93.256016 381,93.449802 381,93.598834 c 0,0.149032 0.41138,1.352987 0.91418,2.675455 0.84759,2.229314 1.32114,2.370742 6.5,1.94127 C 393.09218,97.827623 394,98.016249 394,99.37617 394,100.78378 392.41303,101 382.08179,101 c -6.55502,0 -12.54102,0.23899 -13.30224,0.5311 -0.76121,0.2921 -1.68578,0.22934 -2.0546,-0.13948 z m -37.7899,-10.974953 c -0.44317,-6.254997 0.35643,-32.053126 1.05002,-33.877409 1.81286,-4.768166 8.9105,-6.099009 13.10869,-2.457942 2.18578,1.895721 2.44465,3.048247 2.90301,12.924772 C 346.60747,80.165354 346.14316,90 344.91118,90 344.40361,90 344,83.384472 344,75.0651 c 0,-8.214196 -0.44345,-16.101275 -0.98546,-17.526844 -1.07375,-2.824185 -4.36699,-4.520356 -7.29165,-3.75554 -3.97278,1.038906 -4.75527,4.211516 -5.07377,20.571542 -0.16741,8.59888 -0.60694,15.936896 -0.97675,16.306701 -0.3698,0.369806 -0.7016,0.259874 -0.73732,-0.244292 z M 350,77.735122 c 0,-0.911466 0.87071,-2.468398 1.9349,-3.459847 1.0642,-0.99145 2.39994,-3.025777 2.96832,-4.520727 0.87218,-2.293996 0.72988,-2.880538 -0.91198,-3.759238 -2.68915,-1.439187 -3.75968,-3.768974 -4.58272,-9.973357 -0.46712,-3.521385 -0.36217,-5.111343 0.30998,-4.695932 0.55892,0.345433 1.25086,2.709772 1.53764,5.254085 0.28678,2.544314 1.18445,5.289056 1.99482,6.099428 1.29787,1.29787 1.55531,0.749488 2.16088,-4.603066 0.89746,-7.932481 2.30859,-7.820403 2.18488,0.173532 -0.12557,8.114485 1.95641,8.474167 4.56859,0.789266 C 364.13475,53.245272 366,50.410322 366,53.211016 c 0,3.028905 -4.31232,12.885764 -6.04257,13.811765 -0.95005,0.508455 -1.98619,1.955662 -2.30252,3.216016 C 356.88756,73.296165 350,80.041036 350,77.735122 Z"
       id="path2" />
    <path
       style="fill:#000000"
       d="m 439.09221,621.6111 c -0.63398,-0.76389 -3.09525,-1.87804 -5.4695,-2.47588 -2.58624,-0.65123 -7.48502,-3.51818 -12.21976,-7.15148 -4.34662,-3.33548 -8.91545,-6.32011 -10.15295,-6.63253 -1.2375,-0.31241 -2.25,-0.92642 -2.25,-1.36446 0,-0.43804 -1.86889,-0.54577 -4.15308,-0.23939 -3.09418,0.41501 -3.96288,0.24928 -3.40707,-0.65003 0.54381,-0.87991 -0.29559,-1.12445 -3.09692,-0.90221 -4.14793,0.32908 -4.70918,0.64514 -9.86402,5.55488 -1.87673,1.7875 -3.84425,3.25 -4.37225,3.25 -0.52801,0 -1.11046,0.7812 -1.29433,1.736 -0.26705,1.38664 -1.01848,0.98415 -3.73401,-2 -1.86982,-2.0548 -4.02276,-3.736 -4.78431,-3.736 -1.0436,0 -1.2319,-0.92362 -0.7645,-3.75 0.44678,-2.70172 0.33488,-3.33879 -0.40032,-2.27896 -0.56124,0.80907 -1.28436,1.20713 -1.60692,0.88457 -0.61266,-0.61267 -4.27869,-12.5961 -5.12739,-16.76031 -0.69195,-3.39509 -2.27337,-6.0953 -3.56982,-6.0953 -0.60752,0 -1.73689,-0.7875 -2.50971,-1.75 -1.2341,-1.53698 -1.33001,-1.08052 -0.78791,3.75 0.33948,3.025 0.81905,6.2215 1.06573,7.10333 0.60435,2.16045 -6.99913,7.21999 -9.60655,6.39242 -2.79346,-0.88661 -7.58144,-7.46371 -8.35731,-11.4802 -0.39041,-2.02108 -2.27835,-5.17088 -4.49539,-7.5 -3.60946,-3.79194 -8.12298,-14.48596 -8.14008,-19.28655 -0.003,-0.95095 -0.69033,-3.04095 -1.52653,-4.64444 -0.8362,-1.6035 -1.67426,-4.0785 -1.86236,-5.5 -0.18809,-1.42151 -0.6743,-3.37206 -1.08046,-4.33456 -0.40616,-0.9625 -0.47945,-2.425 -0.16286,-3.25 0.31658,-0.825 0.20086,-1.5 -0.25716,-1.5 -0.89097,0 -4.28214,-8.17915 -4.76803,-11.5 -0.44524,-3.04309 -0.91776,-4.72762 -2.21864,-7.9094 -0.65423,-1.60017 -1.10303,-3.62517 -0.99734,-4.5 0.10569,-0.87483 -0.38359,-2.9406 -1.08729,-4.5906 -0.7037,-1.65 -1.38559,-5.7 -1.51532,-9 -0.12973,-3.3 -0.7619,-7.29991 -1.40484,-8.88869 -0.64293,-1.58878 -0.93528,-3.12237 -0.64966,-3.40799 0.28561,-0.28562 0.009,-1.13434 -0.615,-1.88604 -0.62386,-0.75171 -1.28023,-5.73208 -1.45859,-11.06749 -0.2492,-7.45411 0.0309,-10.24285 1.20942,-12.0415 1.40439,-2.14337 1.35982,-2.67438 -0.52862,-6.29743 -1.8061,-3.46507 -2.00318,-5.22738 -1.58617,-14.18377 0.37778,-8.11375 0.2431,-9.71049 -0.65173,-7.72709 -0.62034,1.375 -1.30782,4.525 -1.52774,7 -0.21991,2.475 -0.559,6.3 -0.75354,8.5 -0.19454,2.2 -0.42238,4 -0.5063,4 -0.0839,0 -0.31095,2.925 -0.50449,6.5 -0.19354,3.575 -0.4286,6.95 -0.52236,7.5 -0.23381,1.37153 0.66605,6.31912 1.87654,10.31755 0.61187,2.02107 0.65559,4.23488 0.11189,5.66492 -0.67102,1.76492 -0.51733,2.49133 0.61939,2.92753 0.95234,0.36544 1.28985,1.27962 0.91198,2.47017 -0.32992,1.03951 -0.0838,3.0227 0.547,4.40709 0.78244,1.71727 0.84162,3.42199 0.18625,5.36491 -0.72492,2.14909 -0.57984,3.43443 0.59129,5.23858 0.85354,1.31491 1.64821,4.39033 1.76593,6.83426 0.11772,2.44393 0.92446,5.22853 1.79277,6.18799 0.8683,0.95947 1.57873,2.69499 1.57873,3.85672 0,1.16174 0.45,2.39036 1,2.73028 0.55,0.33992 1,1.68992 1,3 0,1.31008 0.37592,2.61429 0.83537,2.89825 0.45945,0.28396 0.68668,2.9923 0.50496,6.01853 -0.28672,4.7749 -5.8e-4,5.83206 2.16463,7.99728 1.37227,1.37227 2.49504,2.93997 2.49504,3.48378 0,0.54381 0.84563,1.58105 1.87918,2.30498 1.64247,1.15043 4.0363,8.98991 4.58853,15.02681 0.087,0.95129 0.46738,2.03879 0.84525,2.41667 0.37787,0.37787 0.68704,3.08703 0.68704,6.02037 0,3.91867 -0.49591,5.79752 -1.86962,7.08333 -6.37058,5.96301 -8.19592,7.25143 -10.29057,7.26365 -3.59245,0.021 -6.87866,1.11447 -6.27662,2.08859 0.29737,0.48117 -0.1551,0.60785 -1.00551,0.28152 -0.85041,-0.32633 -1.30041,-0.99102 -1,-1.47709 0.30041,-0.48607 -0.0397,-0.6631 -0.75574,-0.39341 -0.71607,0.26969 -2.74003,-0.86046 -4.49771,-2.51145 C 301.57657,581.50038 299.49085,581.21432 298,584 c -0.5887,1.1 -1.55719,2 -2.1522,2 -0.59502,0 -2.76026,1.72949 -4.81165,3.84331 -2.0514,2.11383 -4.64228,4.08193 -5.75751,4.37357 -3.40743,0.89107 -7.94561,-3.56093 -9.6725,-9.48882 C 274.08401,579.50305 267.62004,571 265.17015,571 c -0.66544,0 -2.98813,-1.12255 -5.16153,-2.49456 -3.9034,-2.46411 -6.91965,-6.83103 -7.53458,-10.90857 -0.4821,-3.19673 -1.12939,-5.2635 -5.04137,-16.09687 -1.98607,-5.5 -3.97883,-11.35 -4.42834,-13 -2.04561,-7.50871 -2.98739,-12.71839 -2.45493,-13.57993 0.81007,-1.31073 -0.50593,-5.06497 -1.5494,-4.42007 -1.78989,1.10621 -2.22958,-4.39696 -1.59262,-19.93356 0.59073,-14.40921 0.45191,-16.73263 -1.34584,-22.52504 -1.26502,-4.07595 -1.63678,-6.68588 -1.00771,-7.07467 0.54824,-0.33883 1.16839,-1.93246 1.3781,-3.54139 1.11493,-8.55381 3.00497,-12.03267 11.36467,-20.91821 1.81313,-1.92718 4.61229,-4.18434 6.22036,-5.0159 1.60806,-0.83156 3.4605,-2.51977 4.11654,-3.75158 0.65603,-1.23181 2.43723,-3.58965 3.95822,-5.23965 7.26559,-7.88187 9.86376,-11.10163 9.88508,-12.25 0.0128,-0.6875 0.8107,-2.07807 1.7732,-3.09015 6.63413,-6.97589 7.60762,-8.50945 9.40979,-14.82337 2.07971,-7.28628 2.20633,-7.8441 3.70825,-16.33648 0.9492,-5.36706 1.49975,-7.41387 3.09329,-11.5 0.42898,-1.1 1.81035,-5.15 3.06969,-9 3.4777,-10.63182 6.11788,-14.02274 21.90816,-28.13785 2.99155,-2.67418 6.45147,-5.98715 7.6887,-7.36215 5.02951,-5.58953 8.37212,-9.80868 8.37212,-10.56756 0,-0.44195 0.91344,-1.77585 2.02986,-2.96423 3.13662,-3.33878 8.25268,-24.62887 7.47353,-31.10055 -0.93496,-7.76582 2.62059,-21.34522 8.67294,-33.12382 8.64404,-16.82234 11.12336,-25.86885 12.77961,-46.62994 1.04427,-13.09001 1.30661,-14.22534 4.57592,-19.80357 1.90748,-3.25462 3.46814,-6.32019 3.46814,-6.81238 0,-0.4922 1.02708,-2.00315 2.2824,-3.35766 1.25533,-1.35452 3.3581,-3.86637 4.67284,-5.58189 3.91484,-5.10824 11.01697,-9.54185 17.54476,-10.95259 3.3,-0.71317 8.13236,-1.97885 10.73858,-2.81261 2.60622,-0.83377 5.36412,-1.2759 6.12867,-0.98252 0.76454,0.29339 3.07759,0.15283 5.14009,-0.31234 4.99778,-1.12718 18.00115,0.96145 24.49266,3.93406 0.825,0.37778 3.29911,0.79415 5.49803,0.92527 2.19892,0.13111 4.42642,0.66678 4.95,1.19036 0.52358,0.52358 1.74199,0.95197 2.70756,0.95197 0.96558,0 3.41337,1.125 5.43955,2.5 2.02617,1.375 4.43513,2.5 5.35324,2.5 0.9181,0 4.1178,1.48755 7.11045,3.30566 2.99264,1.81811 6.56617,3.95561 7.94117,4.75 1.375,0.79439 4.09342,2.64514 6.04094,4.11279 5.64768,4.25609 14.08743,5.90695 30.25133,5.91734 17.26628,0.0111 32.65641,-0.78627 38.70773,-2.00545 14.52576,-2.92655 23.91394,-5.6391 27.47215,-7.9376 6.12091,-3.95393 7.89059,-5.00828 9.52785,-5.67652 1.62919,-0.66494 3.03211,-1.40718 9.77169,-5.16984 3.5327,-1.97229 5.7753,-2.45788 11.0788,-2.39887 3.65723,0.0407 7.77451,0.28818 9.14951,0.54998 14.23652,2.71065 17,3.69538 17,6.05776 0,0.78918 1.35,2.43297 3,3.65287 1.65,1.2199 3,2.72374 3,3.34188 0,0.61814 1.30729,2.0904 2.90508,3.2717 4.32911,3.20065 7.46253,13.32065 6.65614,21.49733 -0.33798,3.42703 -0.84886,15.12473 -1.13529,25.99488 l -0.52077,19.76391 3.51732,8.62733 c 3.10503,7.61604 3.44617,9.30813 2.91028,14.43525 -0.59357,5.67896 -0.53193,5.87012 2.77569,8.60876 1.8605,1.54046 6.11671,5.324 9.45824,8.40787 3.34153,3.08387 6.50976,5.78387 7.04053,6 0.53076,0.21613 1.96127,1.81244 3.1789,3.54734 1.7793,2.53518 2.21388,4.54309 2.21388,10.229 0,6.97438 0.58253,9.39701 7.00528,29.13368 3.61512,11.10899 6.31427,27.05958 5.47513,32.35521 -1.96947,12.42901 -4.15682,20.22848 -9.03616,32.22044 -2.9795,7.32271 -5.15369,14.0009 -4.83154,14.84042 0.83219,2.16864 7.07739,5.81688 9.95758,5.81688 2.36915,0 3.34811,2.06437 1.51593,3.19671 -0.83602,0.51669 2.65825,8.69161 3.987,9.3277 0.31528,0.15092 0.38168,1.5795 0.14757,3.17461 -0.23411,1.5951 0.14295,4.62162 0.83791,6.72559 0.69496,2.10396 1.35618,8.32539 1.46938,13.82539 0.2316,11.2528 2.2132,21.91778 5.8849,31.67257 1.36586,3.62876 2.27483,6.80628 2.01994,7.06117 -0.25488,0.25489 -0.61962,3.56907 -0.81051,7.36485 -0.19089,3.79577 -0.82913,8.08957 -1.41831,9.54177 -0.58917,1.4522 -1.16491,6.4022 -1.27941,11 -0.1145,4.5978 -0.61798,8.62578 -1.11885,8.95105 -0.50087,0.32528 -1.08548,2.50116 -1.29913,4.83529 -0.21365,2.33414 -1.09007,5.31467 -1.94759,6.62341 -1.95601,2.98526 -1.97204,3.82232 -0.0591,3.08826 0.94663,-0.36325 1.5,0.0123 1.5,1.01801 0,1.24036 -0.67071,1.45948 -3.02565,0.98849 -2.70124,-0.54025 -3.19917,-0.24127 -4.64392,2.78839 -0.89004,1.86644 -2.11599,3.2051 -2.72434,2.9748 -0.60835,-0.2303 -2.45609,0.76119 -4.10609,2.2033 -4.5682,3.99265 -9.77556,7.0946 -13.75405,8.19312 -3.1236,0.86247 -3.84309,0.71237 -5.5445,-1.1567 -1.07531,-1.18128 -2.48778,-3.8121 -3.13883,-5.84627 -1.04601,-3.26821 -0.88988,-4.42599 1.34198,-9.95152 1.38914,-3.43916 2.32898,-6.44975 2.08853,-6.69019 -0.24044,-0.24045 -0.86529,0.68886 -1.38855,2.06513 -0.52325,1.37626 -1.60315,2.75241 -2.39976,3.0581 -0.79661,0.30569 -2.47073,2.66768 -3.72026,5.24886 -1.24953,2.58119 -3.55723,6.00797 -5.12822,7.61507 -1.57099,1.6071 -2.85634,3.25946 -2.85634,3.67191 0,0.41245 -1.2375,1.48686 -2.75,2.38757 -1.5125,0.90072 -4.1,2.96011 -5.75,4.57643 -1.65,1.61632 -4.12327,3.29188 -5.49616,3.72346 -1.37289,0.43159 -2.94789,1.35782 -3.5,2.0583 -0.55211,0.70048 -3.11914,1.54462 -5.70451,1.87588 -4.69534,0.60159 -4.70139,0.59849 -5.32708,-2.73673 -0.78127,-4.16451 1.15317,-15.1974 3.36629,-19.19937 0.9138,-1.65243 2.67396,-4.27644 3.91146,-5.83114 1.2375,-1.55469 2.25,-3.46719 2.25,-4.25 0,-0.7828 0.45,-1.42327 1,-1.42327 0.55,0 1,-0.49303 1,-1.09563 0,-0.6026 0.93064,-2.4026 2.06809,-4 2.78737,-3.91449 1.29455,-3.63048 -3.56809,0.67882 -2.2,1.94966 -5.2375,4.20258 -6.75,5.0065 -1.5125,0.80392 -2.75,1.90673 -2.75,2.45069 0,1.83685 -6.35252,4.90407 -9.46247,4.56881 -2.20653,-0.23786 -3.12497,-0.91324 -3.35713,-2.46868 -0.43172,-2.89246 6.0445,-16.13075 9.65487,-19.73588 1.59987,-1.59755 4.1587,-4.92963 5.68628,-7.40463 1.52759,-2.475 3.15338,-4.74737 3.61288,-5.04971 1.22093,-0.80335 2.27833,-6.95029 1.19559,-6.95029 -0.50599,0 -1.77732,2.07899 -2.82517,4.61998 -3.88686,9.42536 -11.99971,19.10973 -24.50485,29.25161 -3.025,2.45333 -8.2,7.14438 -11.5,10.42456 -3.3,3.28018 -8.475,7.56502 -11.5,9.52187 -3.025,1.95684 -6.2472,4.50557 -7.16045,5.66383 -2.86548,3.63425 -11.97269,7.39957 -19.45883,8.04515 -3.7844,0.32636 -8.68072,0.7481 -10.88072,0.9372 -2.2,0.18911 -6.025,0.82847 -8.5,1.42082 -11.30201,2.70492 -15.82129,3.14575 -35.75,3.4872 -16.8294,0.28835 -21.25,0.0968 -21.25,-0.92073 0,-0.70665 -0.5625,-1.47414 -1.25,-1.70554 -0.99598,-0.33521 -0.99774,-0.72647 -0.009,-1.92534 0.68273,-0.82754 0.94523,-1.80072 0.58334,-2.16262 -0.3619,-0.36189 0.26043,-0.65799 1.38295,-0.65799 1.12251,0 3.99297,-0.68872 6.37878,-1.53048 2.38582,-0.84177 6.85434,-1.67887 9.93006,-1.86023 3.07571,-0.18136 7.14276,-1.02487 9.03788,-1.87447 1.89512,-0.84959 5.65027,-1.81308 8.34478,-2.14108 2.69451,-0.32799 5.52609,-1.1167 6.29238,-1.75267 1.0013,-0.83099 1.69841,-0.85117 2.47787,-0.0717 1.23387,1.23387 5.77857,-0.10625 7.06029,-2.08192 0.5304,-0.81758 1.00396,-0.85788 1.52035,-0.12938 0.52087,0.73481 5.25944,0.50086 15.51066,-0.76581 12.85506,-1.5884 15.3868,-2.20912 19.6106,-4.80806 2.66747,-1.6413 5.33053,-2.98419 5.91791,-2.98419 0.58739,0 1.66262,-0.58092 2.3894,-1.29092 0.72679,-0.71001 2.33801,-1.99274 3.5805,-2.85051 C 584.08931,537.4884 603,519.69373 603,518.10723 c 0,-0.463 2.36359,-3.26404 5.25241,-6.22452 5.348,-5.48067 9.70704,-11.71614 17.74759,-25.38741 2.475,-4.20822 5.44731,-8.8537 6.60513,-10.3233 1.15783,-1.4696 2.6762,-4.472 3.37418,-6.672 0.69797,-2.2 2.38352,-6.475 3.74566,-9.5 1.36214,-3.025 2.49347,-5.725 2.51405,-6 0.0206,-0.275 2.15336,-3.65 4.7395,-7.5 C 652.29372,438.58723 657,429.58096 657,427.32221 c 0,-0.83241 0.83043,-2.70794 1.8454,-4.16784 1.01496,-1.4599 3.00189,-5.12937 4.41538,-8.15437 1.41349,-3.025 5.08307,-10.80372 8.1546,-17.28603 3.07154,-6.48232 5.58462,-12.1392 5.58462,-12.57085 0,-0.43165 1.81621,-5.60447 4.03603,-11.49515 5.21083,-13.82788 5.89368,-17.82091 4.85921,-28.41468 -1.58904,-16.27294 -2.70776,-22.33026 -6.23017,-33.73329 -1.35917,-4.4 -3.0382,-10.475 -3.73119,-13.5 -0.69974,-3.05449 -2.18792,-6.31854 -3.34693,-7.34091 -1.14782,-1.0125 -3.43695,-3.05542 -5.08695,-4.53981 -1.65,-1.4844 -6.02655,-5.04501 -9.72567,-7.91247 l -6.72568,-5.21355 0.60068,3.00337 c 0.39889,1.99447 0.20012,3.00337 -0.59172,3.00337 -0.73731,0 -0.95012,0.7633 -0.55761,2 0.37034,1.16683 0.1797,2 -0.45761,2 -0.60082,0 -1.36239,-1.35 -1.69239,-3 -0.33,-1.65 -0.99375,-3 -1.475,-3 -0.48125,0 -0.875,-0.69473 -0.875,-1.54384 0,-0.91559 -0.71214,-1.42426 -1.75,-1.25 -0.97786,0.16419 -1.63969,-0.25769 -1.5,-0.95616 0.1375,-0.6875 -0.2,-1.25 -0.75,-1.25 -0.55,0 -1,-0.675 -1,-1.5 0,-0.825 -0.42508,-1.5 -0.94462,-1.5 -0.51954,0 -3.48829,-2.3625 -6.59722,-5.25 -3.10894,-2.8875 -7.52136,-6.31567 -9.80538,-7.61816 -2.28403,-1.30248 -5.27778,-3.1187 -6.65278,-4.03603 -2.68951,-1.79431 -4.81705,-2.83165 -12.29749,-5.99597 -2.63862,-1.11617 -5.91966,-2.91209 -7.29118,-3.99093 -1.51309,-1.19019 -3.46058,-1.7862 -4.95251,-1.51566 -1.35235,0.24522 -2.45882,0.0482 -2.45882,-0.43783 0,-0.96377 -8.27991,-4.41826 -11.5,-4.79796 -7.01062,-0.82666 -23.79687,-2.38626 -28,-2.60146 -2.75,-0.1408 -5.45,-0.51782 -6,-0.83781 -0.55,-0.32 -2.8,-0.43476 -5,-0.25502 -7.39585,0.60423 -19.94908,1.36242 -26.5,1.60055 -3.575,0.12995 -6.74156,0.5576 -7.03679,0.95032 -0.29524,0.39272 -2.09524,0.94942 -4,1.2371 -10.37906,1.56756 -30.05504,7.14929 -35.83741,10.16644 -1.44419,0.75355 -3.1883,1.37287 -3.8758,1.37626 -0.6875,0.003 -2.16641,0.92257 -3.28647,2.04263 -1.12007,1.12007 -2.39808,1.813 -2.84003,1.53986 -0.44196,-0.27315 -2.65816,1.28544 -4.92489,3.46352 -2.26673,2.17808 -4.40441,3.96015 -4.75038,3.96015 -0.34598,0 -2.72586,2.16115 -5.28864,4.80256 -2.56277,2.64141 -6.77574,6.24834 -9.36215,8.0154 -2.58641,1.76707 -5.49594,4.55591 -6.46561,6.19744 -0.96967,1.64153 -2.11602,2.9846 -2.54744,2.9846 -0.43141,0 -0.78439,0.675 -0.78439,1.5 0,0.825 -0.63486,1.5 -1.41079,1.5 -0.77594,0 -2.39173,2.02635 -3.59066,4.50299 -1.25116,2.58456 -2.6331,4.22287 -3.24371,3.84549 -0.62611,-0.38695 -0.77078,-0.18329 -0.3516,0.49496 0.72592,1.17456 -2.24488,7.15656 -3.55412,7.15656 -0.39582,0 -1.29274,1.5848 -1.99316,3.52178 -0.70042,1.93697 -2.36389,4.23624 -3.69661,5.10947 -1.90578,1.24871 -2.12913,1.76939 -1.04611,2.43874 1.11328,0.68804 0.99489,1.15244 -0.61811,2.42471 -1.09732,0.86552 -2.89513,1.95711 -3.99513,2.42577 -1.39688,0.59514 -2.5589,2.92191 -3.85338,7.71581 -1.01935,3.77505 -3.15685,9.40171 -4.75,12.5037 -1.59314,3.10199 -2.89662,5.94513 -2.89662,6.31809 0,1.12117 6.11355,-3.59039 6.72444,-5.18237 0.3114,-0.81147 1.51328,-2.50385 2.67087,-3.76084 3.40767,-3.70033 6.67394,-9.5938 5.95855,-10.75132 -0.36764,-0.59485 -0.19779,-0.78512 0.38135,-0.42719 0.58757,0.36314 3.65265,-3.39579 7.00887,-8.59549 12.74964,-19.75265 39.46062,-47.74625 53.75592,-56.33718 9.04896,-5.43809 23.31666,-10.68015 37.87581,-13.91587 3.91831,-0.87083 8.58407,-2.04001 10.36836,-2.59819 1.78429,-0.55817 3.59161,-0.80013 4.01627,-0.53768 0.42465,0.26245 3.01477,0.0223 5.75583,-0.53366 6.10305,-1.23787 30.75516,-1.08801 42.96487,0.26119 5.13893,0.56786 13.69508,2.5401 20,4.61012 19.64664,6.45034 32.08171,12.96475 43.35197,22.71099 8.87667,7.67631 20.26821,17.90812 22.30921,20.03798 2.0539,2.14332 2.43777,5.08489 0.796,6.09956 -0.58393,0.36089 -1.47279,1.73745 -1.97525,3.05902 -1.61268,4.24167 -5.3369,3.16012 -9.80381,-2.84714 -2.1471,-2.8875 -8.7988,-9.99836 -14.78154,-15.8019 -17.83339,-17.29923 -28.20009,-23.98743 -45.87862,-29.59916 l -11.9991,-3.8089 -20.5,0.0393 c -17.87614,0.0343 -22.29191,0.37826 -34.5,2.68761 -37.21151,7.0391 -53.21923,16.10113 -75.56849,42.77961 -2.51267,2.99939 -6.0395,7.61667 -7.83738,10.26062 -3.92095,5.76608 -14.62731,26.48938 -16.01053,30.99005 -2.95311,9.60877 -7.37042,20.3594 -8.81469,21.45277 -0.90814,0.6875 -3.8381,1.25 -6.51102,1.25 -4.31202,0 -5.23564,-0.41019 -8.19344,-3.63881 l -3.33359,-3.6388 -0.59374,6.8888 c -0.32655,3.78885 -0.43427,8.68881 -0.23936,10.88881 0.84753,9.56641 2.67786,22.57085 3.47558,24.69386 1.0797,2.87345 0.75075,24.37777 -0.75238,49.18569 -0.62915,10.38375 -1.35737,22.53375 -1.61826,27 -0.26089,4.46625 -0.73004,11.72045 -1.04256,16.12045 -0.46471,6.54272 -0.20127,8.97956 1.4462,13.37747 1.10793,2.95762 2.70724,6.14305 3.55404,7.07875 0.84679,0.93569 1.56552,2.34083 1.59718,3.12252 0.0317,0.78169 3.00589,3.89626 6.60941,6.92126 3.60351,3.025 7.51511,6.50473 8.69244,7.73272 1.17732,1.228 2.49584,2.2405 2.93004,2.25 0.4342,0.01 3.12819,1.59228 5.98665,3.51728 2.85846,1.925 5.5938,3.5 6.07854,3.5 0.48473,0 2.41985,1.35084 4.30026,3.00186 1.88041,1.65102 5.53982,4.11508 8.13202,5.47568 5.93089,3.11304 7.69049,4.69 12.95518,11.61046 2.33316,3.06695 5.70816,6.94333 7.5,8.61418 1.79185,1.67085 4.1579,4.53705 5.2579,6.36935 2.65914,4.42938 3.61257,5.913 6.07243,9.44921 2.51582,3.61667 5.42757,9.81383 5.42757,11.55165 0,0.69857 0.76295,2.11318 1.69545,3.14358 1.49133,1.6479 1.54471,2.43703 0.4434,6.5547 -0.68862,2.57469 -1.5969,4.91707 -2.01839,5.20529 -0.42149,0.28822 -1.0569,1.31154 -1.41202,2.27404 -0.76048,2.06117 -3.02533,2.27597 -4.88701,0.46349 -0.72679,-0.70758 -4.47143,-3.79239 -8.32143,-6.85512 -6.04036,-4.8052 -9.79993,-8.862 -17.01331,-18.35837 -1.40559,-1.85045 -1.42893,-1.77568 -0.3121,1 0.6639,1.65 1.92855,3.9 2.81033,5 0.88178,1.1 2.39947,4.7 3.37264,8 0.97318,3.3 2.19384,7.349 2.71259,8.99778 0.51874,1.64878 0.55558,3.12698 0.0818,3.28489 -0.47372,0.1579 -0.65043,1.39032 -0.39267,2.73869 0.53338,2.79018 -1.94224,9.62443 -4.80437,13.26302 -1.06024,1.34788 -1.68228,2.8478 -1.38232,3.33316 0.88774,1.43639 -1.22624,1.00477 -2.48043,-0.50644 z m -7.24612,-404.2277 c 3.10965,-0.88913 6.32891,-2.18591 7.15391,-2.88172 0.825,-0.69582 2.625,-1.6082 4,-2.02753 3.98893,-1.21649 7.0825,-3.60535 10.14664,-7.83528 2.39786,-3.31015 2.85247,-4.91271 2.84778,-10.03891 -0.011,-12.01108 -3.65628,-18.98965 -11.35887,-21.74543 -2.66405,-0.95313 -5.61983,-2.43531 -6.56838,-3.29375 C 437.11861,168.70235 435.6386,168 434.77825,168 c -0.86035,0 -1.83266,-0.6994 -2.16069,-1.55423 -0.46849,-1.22087 -1.78994,-1.46666 -6.16105,-1.14593 -3.06056,0.22456 -6.08031,0.92396 -6.71058,1.55423 -0.63026,0.63026 -1.84343,1.15078 -2.69593,1.15671 -2.96195,0.0206 -9.81616,7.76913 -11.58605,13.09776 -2.38731,7.1875 -1.71951,21.30713 1.20391,25.45489 1.13836,1.61511 2.36124,3.87702 2.71751,5.02646 0.69382,2.23845 2.76656,3.566 9.11463,5.83774 5.25252,1.87968 6.63342,1.8751 13.34609,-0.0442 z m -13.81634,-3.89936 c -10.74991,-4.87182 -14.33496,-16.83759 -8.59695,-28.69394 2.29189,-4.7357 3.68243,-6.22858 8.15013,-8.75 13.9032,-7.84648 33.2358,-0.26601 35.11845,13.77022 1.02826,7.66623 -4.22554,17.06839 -12.12413,21.69728 -5.78849,3.39227 -17.21355,4.39376 -22.5475,1.97644 z m 211.28457,0.64371 C 631.89144,212.35464 634,210.3971 634,209.77765 c 0,-0.61946 -1.0125,-0.23372 -2.25,0.85719 -3.72987,3.28804 -7.47435,4.36516 -15.17493,4.36516 -11.67868,0 -16.17943,-2.79583 -20.60445,-12.79933 -4.71395,-10.65667 -0.24079,-21.73025 10.82321,-26.79346 6.99759,-3.20231 13.08883,-2.96546 21.20617,0.82455 7.57669,3.53758 9.65959,5.81757 10.94864,11.98465 1.7356,8.30341 2.61393,8.68437 3.98263,1.72742 l 1.22088,-6.2056 -3.78359,-5.49361 c -4.08496,-5.93116 -7.75102,-8.08861 -17.18133,-10.11105 -15.59536,-3.3446 -33.10818,9.92971 -33.46967,25.36925 -0.16847,7.19552 2.33598,12.10625 8.84672,17.34673 9.67036,7.78363 22.25209,9.12495 30.75004,3.2782 z M 324.5,132.85466 c -5.14206,-1.92363 -11.65281,-7.94853 -13.81268,-12.78195 -1.68778,-3.77695 -2.0559,-6.74801 -2.11535,-17.07271 -0.0638,-11.076148 0.19309,-13.069541 2.25502,-17.5 3.54811,-7.623845 3.93166,-17.012776 1.14407,-28.005888 -3.62428,-14.292609 -2.33858,-21.042147 5.02421,-26.375724 7.66497,-5.552474 12.46112,-6.494283 25.90835,-5.087559 10.82876,1.132805 16.41405,1.006743 27.78177,-0.627046 2.34413,-0.336902 5.81106,-0.06501 7.88071,0.618032 5.19255,1.713697 11.25504,7.464295 11.9329,11.319002 C 390.80455,39.078368 391.18249,49.5 391.33886,60.5 l 0.28431,20 4.43842,7.458434 4.43841,7.458434 v 10.104192 c 0,9.35059 -0.23024,10.5438 -3.08706,15.99864 -1.69789,3.24195 -4.25029,6.76293 -5.672,7.82439 -3.41667,2.55092 -10.43066,3.50853 -20.24094,2.76348 -7.33083,-0.55675 -13.0786,-0.34996 -36,1.2952 -4.91109,0.35248 -9.15834,0.14085 -11,-0.54811 z m 20,-1.93749 c 5.5,-0.56717 16.3,-1.01503 24,-0.99523 7.7,0.0198 14.74253,-0.19559 15.65006,-0.47864 1.30897,-0.40825 1.54124,-1.38581 1.12366,-4.72897 -0.28952,-2.31788 -0.80705,-4.52128 -1.15006,-4.89644 -0.34301,-0.37516 -4.41241,-1.05016 -9.04311,-1.5 -5.39025,-0.52362 -8.57358,-1.28331 -8.84787,-2.11151 -0.29677,-0.89607 0.2931,-1.13984 1.91945,-0.79321 1.29133,0.27521 5.38537,0.73681 9.09787,1.02577 5.39178,0.41967 6.75,0.24152 6.75,-0.88535 0,-3.78179 -4.93247,-5.2645 -15.25,-4.58419 -2.76895,0.18258 -3.70187,-1.26308 -1.63818,-2.53851 1.65258,-1.02135 10.2299,-0.63113 13.51865,0.61503 1.57824,0.59802 3.90573,2.05804 5.1722,3.24449 1.95726,1.83359 2.44248,1.9361 3.23469,0.68339 0.51261,-0.81059 0.93891,-2.7113 0.94733,-4.2238 0.008,-1.5125 0.46531,-2.75 1.01531,-2.75 1.74831,0 1.07657,6.08373 -0.9926,8.98961 -1.51839,2.13238 -1.93487,4.13238 -1.75,8.40389 0.13343,3.08305 0.50166,5.60576 0.81829,5.60602 1.19043,9.9e-4 4.61616,-4.64401 6.26848,-8.49952 4.46477,-10.41806 3.86793,-21.595424 -1.73081,-32.414239 C 389.89997,80.910144 387.98127,71.022937 388.74525,63 l 0.42851,-4.5 -2.74581,2.877753 c -3.42735,3.592049 -3.65268,10.132362 -0.4404,12.78254 2.0471,1.688878 2.70104,3.839707 1.16744,3.839707 -1.5972,0 -3.95952,-3.506125 -5.20896,-7.731049 -0.70284,-2.376632 -2.02136,-4.475472 -3.00833,-4.788726 -2.62268,-0.832406 -3.69267,-2.543793 -4.36415,-6.980225 -0.53674,-3.5462 -0.47657,-3.716375 0.53036,-1.5 0.62469,1.375 1.6079,3.5125 2.18492,4.75 1.47388,3.160943 3.71643,2.856853 3.68731,-0.5 -0.0246,-2.833474 -1.1733,-8.232526 -2.49997,-11.75 -0.71484,-1.895316 -0.6351,-1.886598 1.52353,0.166552 1.59972,1.521561 2.42517,3.699756 2.77271,7.316645 l 0.49486,5.150092 3.36636,-3.262811 c 3.25071,-3.15071 3.36443,-3.522342 3.30993,-10.816645 -0.0747,-9.998437 -1.50818,-13.827984 -6.44356,-17.214137 -5.15046,-3.533719 -10.60811,-4.354367 -17.44268,-2.622795 l -5.41807,1.372697 3.67131,2.166128 c 3.81116,2.248637 7.67921,7.500492 7.6857,10.435257 0.006,2.807991 1.81566,3.025691 3.52063,0.423577 1.98373,-3.027544 1.17642,-8.493258 -1.7125,-11.594147 -1.10302,-1.183954 -1.78946,-2.368677 -1.52542,-2.632717 0.26404,-0.26404 1.88429,1.429363 3.60055,3.763118 4.14942,5.642328 4.20433,9.987988 0.16395,12.975167 -3.68624,2.725358 -4.96807,6.299808 -5.72202,15.956183 l -0.592,7.582165 4.63528,1.297796 C 376.91413,70.675914 379,71.65144 379,72.129961 379,73.335114 375.25836,73.227054 374.5,72 c -1.03887,-1.680921 -3.5,-1.112139 -3.5,0.80887 0,0.994879 0.66069,2.682379 1.4682,3.75 1.98766,2.627929 1.91448,4.003381 -0.1231,2.313575 -0.9102,-0.754845 -2.28128,-2.870938 -3.04684,-4.702429 -1.33789,-3.200682 -1.55515,-3.305695 -5.5951,-2.704431 -3.91613,0.582835 -4.0706,0.520008 -2.26203,-0.920016 C 362.50875,69.695506 364.42125,69 365.69113,69 c 1.98869,0 2.31876,-0.52003 2.38015,-3.75 0.0392,-2.0625 0.37071,-5.55 0.73667,-7.75 0.36595,-2.2 0.65753,-7.023051 0.64794,-10.717891 -0.0198,-7.61557 -1.86183,-11.139869 -7.26507,-13.899786 -1.74186,-0.889722 -3.73487,-2.067281 -4.42892,-2.616798 -0.69404,-0.549516 -6.96296,-1.584113 -13.93093,-2.299105 -11.57578,-1.187806 -13.06432,-1.149018 -17.25,0.449505 -4.35179,1.661967 -6.03534,3.506942 -3.33097,3.650369 16.92657,0.897702 18.27368,1.175171 19.83077,4.084618 1.53006,2.858958 -1.17519,5.534906 -6.41983,6.350273 -8.30098,1.290527 -15.92472,3.986115 -17.3333,6.128678 -1.69392,2.576598 -1.82822,9.813691 -0.40584,21.870137 1.36005,11.528159 1.39415,19.813305 0.0782,19 -0.55,-0.339919 -1.022,-3.628976 -1.0489,-7.309017 -0.0269,-3.680041 -0.60921,-11.770216 -1.29404,-17.978168 -1.85708,-16.834303 0.24186,-19.876812 15.80058,-22.903664 7.7153,-1.500964 8.60154,-1.898965 8.33765,-3.744318 -0.26961,-1.885234 -1.07531,-2.090241 -9.26308,-2.356942 -6.30983,-0.205532 -9.46815,-0.744932 -10.65599,-1.819906 -1.53093,-1.385473 -1.99401,-1.254546 -4.97107,1.405459 -4.35677,3.892766 -5.2306,10.169998 -2.60408,18.706556 2.26708,7.368337 3.32924,22.721563 1.9025,27.5 -0.57476,1.925 -2.01904,5.975 -3.20949,9 -3.36138,8.541382 -2.57077,25.37853 1.48364,31.59626 1.19349,1.83029 2.29664,2.08405 8.6946,2 L 329.5,123.5 v -9 -9 h -5.65583 c -9.4745,0 -8.98566,-2.07687 0.65583,-2.78633 4.5639,-0.33583 5.0276,-0.60105 5.31642,-3.040793 C 330.21644,96.293828 332,96.152621 332,99.5 c 0,2.36364 0.3,2.5 5.5,2.5 3.8069,0 5.5,0.39469 5.5,1.28215 0,0.89843 -1.39437,1.20055 -4.65896,1.00949 -2.56243,-0.14997 -5.14993,0.13341 -5.75,0.62974 -0.70579,0.58377 -0.91449,3.84663 -0.59104,9.24052 l 0.5,8.3381 3.5,0.26994 c 5.00066,0.38569 8,1.14858 8,2.03483 0,0.85934 0.32005,0.83176 -13.75,1.18466 -5.6375,0.1414 -10.25,0.60035 -10.25,1.01989 0,0.68649 4.06755,2.86783 8,4.29022 2.27348,0.82234 5.55523,0.74629 16.5,-0.38237 z m 9,-6.69 c -2.60236,-1.89236 -3.51529,-4.53461 -4.46577,-12.92499 -1.2166,-10.73963 -0.20554,-17.627768 3.52075,-23.986205 2.18927,-3.735709 2.80738,-4.192413 4.46989,-3.302666 3.59078,1.921727 3.84754,3.119131 5.5823,26.033161 0.60994,8.05654 0.51076,8.69682 -1.73007,11.16919 -2.58479,2.85187 -5.79466,4.16221 -7.3771,3.01151 z m 4.9045,-4.12164 c 1.19153,-1.31663 1.76531,-3.833 1.88115,-8.25 0.23408,-8.92545 -1.33509,-22.540887 -2.83409,-24.59089 -1.16666,-1.595494 -1.41125,-1.539553 -3.30643,0.756203 -1.99207,2.413142 -2.41092,3.702767 -3.56589,10.979157 -0.52666,3.31805 -0.34804,3.58719 3.43606,5.17721 3.81227,1.60186 5.95446,4.18636 4.59594,5.54488 -0.34971,0.34971 -1.96208,-0.34469 -3.58305,-1.54312 C 353.40723,106.98053 351.80078,106 351.4583,106 c -0.62887,0 0.13977,7.38661 1.24871,12 1.00647,4.18709 3.11015,4.96451 5.69749,2.10553 z m 8.32045,-18.71391 C 365.24368,99.910346 367.38823,99 372.35902,99 c 5.96128,0 8.06784,-1.333889 6.55899,-4.153196 C 378.16926,93.447748 376.77443,93 373.16482,93 370.54417,93 367.86,92.46 367.2,91.8 365.75201,90.352015 365.58914,84 367,84 c 0.55,0 1,1.526855 1,3.393011 C 368,91.16277 369.19611,92 374.58179,92 c 3.70676,0 3.8099,-0.205143 3.45257,-6.866646 -0.1766,-3.292128 0.098,-4.255664 1.1157,-3.915635 0.7993,0.267044 1.39355,2.048203 1.45684,4.366647 0.0588,2.153599 0.1713,4.478134 0.25,5.165634 0.22186,1.937972 4.0152,1.477261 7.34213,-0.891719 2.41324,-1.718381 3.17193,-1.876092 3.8383,-0.797877 1.20858,1.955523 -2.11762,3.917954 -6.96246,4.107794 C 382.83369,93.256016 381,93.449802 381,93.598834 c 0,0.149032 0.41138,1.352987 0.91418,2.675455 0.84759,2.229314 1.32114,2.370742 6.5,1.94127 C 393.09218,97.827623 394,98.016249 394,99.37617 394,100.78378 392.41303,101 382.08179,101 c -6.55502,0 -12.54102,0.23899 -13.30224,0.5311 -0.76121,0.2921 -1.68578,0.22934 -2.0546,-0.13948 z m -37.7899,-10.974953 c -0.44317,-6.254997 0.35643,-32.053126 1.05002,-33.877409 1.81286,-4.768166 8.9105,-6.099009 13.10869,-2.457942 2.18578,1.895721 2.44465,3.048247 2.90301,12.924772 C 346.60747,80.165354 346.14316,90 344.91118,90 344.40361,90 344,83.384472 344,75.0651 c 0,-8.214196 -0.44345,-16.101275 -0.98546,-17.526844 -1.07375,-2.824185 -4.36699,-4.520356 -7.29165,-3.75554 -3.97278,1.038906 -4.75527,4.211516 -5.07377,20.571542 -0.16741,8.59888 -0.60694,15.936896 -0.97675,16.306701 -0.3698,0.369806 -0.7016,0.259874 -0.73732,-0.244292 z M 350,77.735122 c 0,-0.911466 0.87071,-2.468398 1.9349,-3.459847 1.0642,-0.99145 2.39994,-3.025777 2.96832,-4.520727 0.87218,-2.293996 0.72988,-2.880538 -0.91198,-3.759238 -2.68915,-1.439187 -3.75968,-3.768974 -4.58272,-9.973357 -0.46712,-3.521385 -0.36217,-5.111343 0.30998,-4.695932 0.55892,0.345433 1.25086,2.709772 1.53764,5.254085 0.28678,2.544314 1.18445,5.289056 1.99482,6.099428 1.29787,1.29787 1.55531,0.749488 2.16088,-4.603066 0.89746,-7.932481 2.30859,-7.820403 2.18488,0.173532 -0.12557,8.114485 1.95641,8.474167 4.56859,0.789266 C 364.13475,53.245272 366,50.410322 366,53.211016 c 0,3.028905 -4.31232,12.885764 -6.04257,13.811765 -0.95005,0.508455 -1.98619,1.955662 -2.30252,3.216016 C 356.88756,73.296165 350,80.041036 350,77.735122 Z"
       id="path1" />
  </g>
</svg>
